<svg width="50" height="13" viewBox="0 0 50 13" fill="none" xmlns="http://www.w3.org/2000/svg">
<path d="M1.62741 11.1819C1.74034 11.1819 1.74034 11.1579 1.85328 11.1579C1.96621 11.1579 1.96621 11.0447 2.07915 11.0447C2.19208 11.0447 2.19208 11.1957 2.30501 11.1957C2.41795 11.1957 2.41795 11.1922 2.53088 11.1922C2.64382 11.1922 2.64382 11.0276 2.75675 11.0276C2.86968 11.0276 2.86968 11.0276 2.98262 11.0276C3.09555 11.0276 3.09555 11.1957 3.20848 11.1957C3.32142 11.1957 3.32142 11.1614 3.43435 11.1614C3.54729 11.1614 3.54729 11.1716 3.66022 11.1716C3.77315 11.1716 3.77315 11.1373 3.88609 11.1373C3.99902 11.1373 3.99902 11.2677 4.11195 11.2677C4.22489 11.2677 4.22489 11.3294 4.33782 11.3294C4.45076 11.3294 4.45076 11.2197 4.56369 11.2197C4.67662 11.2197 4.67662 11.2986 4.78956 11.2986C4.90249 11.2986 4.90249 11.1339 5.01542 11.1339C5.12836 11.1339 5.12836 11.1339 5.24129 11.1339C5.35423 11.1339 5.35423 11.3294 5.46716 11.3294C5.58009 11.3294 5.58009 11.1854 5.69303 11.1854C5.80596 11.1854 5.80596 11.2402 5.9189 11.2402C6.03183 11.2402 6.03183 11.0379 6.14476 11.0379C6.2577 11.0379 6.2577 11.2437 6.37063 11.2437C6.48356 11.2437 6.48356 11.0482 6.5965 11.0482C6.70943 11.0482 6.70943 11.1271 6.82237 11.1271C6.9353 11.1271 6.9353 11.3466 7.04823 11.3466C7.16117 11.3466 7.16117 11.0173 7.2741 11.0173C7.38703 11.0173 7.38703 11.2917 7.49997 11.2917C7.6129 11.2917 7.6129 11.1202 7.72584 11.1202C7.83877 11.1202 7.83877 11.2437 7.9517 11.2437C8.06464 11.2437 8.06464 11.0928 8.17757 11.0928C8.2905 11.0928 8.29051 11.0242 8.40344 11.0242C8.51637 11.0242 8.51637 11.0859 8.62931 11.0859C8.74224 11.0859 8.74224 11.2574 8.85517 11.2574C8.96811 11.2574 8.96811 11.3088 9.08104 11.3088C9.19398 11.3088 9.19398 11.2608 9.30691 11.2608C9.41984 11.2608 9.41984 11.302 9.53278 11.302C9.64571 11.302 9.64571 11.0276 9.75864 11.0276C9.87158 11.0276 9.87158 11.3294 9.98451 11.3294C10.0974 11.3294 10.0974 11.3466 10.2104 11.3466C10.3233 11.3466 10.3233 11.2265 10.4362 11.2265C10.5492 11.2265 10.5492 11.0825 10.6621 11.0825C10.775 11.0825 10.775 11.3088 10.888 11.3088C11.0009 11.3088 11.0009 11.103 11.1139 11.103C11.2268 11.103 11.2268 11.1957 11.3397 11.1957C11.4527 11.1957 11.4527 11.1545 11.5656 11.1545C11.6785 11.1545 11.6785 11.1991 11.7915 11.1991C11.9044 11.1991 11.9044 11.0756 12.0173 11.0756C12.1303 11.0756 12.1303 11.1888 12.2432 11.1888C12.3561 11.1888 12.3561 11.0722 12.4691 11.0722C12.582 11.0722 12.582 11.35 12.6949 11.35C12.8079 11.35 12.8079 11.3363 12.9208 11.3363C13.0337 11.3363 13.0337 11.2265 13.1467 11.2265C13.2596 11.2265 13.2596 11.1305 13.3725 11.1305C13.4855 11.1305 13.4855 11.0242 13.5984 11.0242C13.7113 11.0242 13.7113 11.2574 13.8243 11.2574C13.9372 11.2574 13.9372 11.1339 14.0501 11.1339C14.1631 11.1339 14.1631 11.2059 14.276 11.2059C14.3889 11.2059 14.3889 11.2745 14.5019 11.2745C14.6148 11.2745 14.6148 11.2917 14.7277 11.2917C14.8407 11.2917 14.8407 11.3431 14.9536 11.3431C15.0665 11.3431 15.0665 11.2505 15.1795 11.2505C15.2924 11.2505 15.2924 11.2368 15.4053 11.2368C15.5183 11.2368 15.5183 11.3157 15.6312 11.3157C15.7441 11.3157 15.7441 11.1408 15.8571 11.1408C15.97 11.1408 15.97 11.1099 16.0829 11.1099C16.1959 11.1099 16.1959 11.1716 16.3088 11.1716C16.4217 11.1716 16.4217 11.0756 16.5347 11.0756C16.6476 11.0756 16.6476 11.2471 16.7605 11.2471C16.8735 11.2471 16.8735 11.3226 16.9864 11.3226C17.0993 11.3226 17.0993 11.3157 17.2123 11.3157C17.3252 11.3157 17.3252 11.3569 17.4381 11.3569C17.5511 11.3569 17.5511 11.1957 17.664 11.1957C17.7769 11.1957 17.7769 11.0344 17.8899 11.0344C18.0028 11.0344 18.0028 11.2883 18.1157 11.2883C18.2287 11.2883 18.2287 11.1751 18.3416 11.1751C18.4545 11.1751 18.4545 11.2265 18.5675 11.2265C18.6804 11.2265 18.6804 11.2471 18.7933 11.2471C18.9063 11.2471 18.9063 11.0893 19.0192 11.0893C19.1321 11.0893 19.1321 11.1957 19.2451 11.1957C19.358 11.1957 19.358 11.1648 19.471 11.1648C19.5839 11.1648 19.5839 11.3191 19.6968 11.3191C19.8098 11.3191 19.8098 11.2848 19.9227 11.2848C20.0356 11.2848 20.0356 11.2162 20.1486 11.2162C20.2615 11.2162 20.2615 11.2402 20.3744 11.2402C20.4874 11.2402 20.4874 11.0242 20.6003 11.0242C20.7132 11.0242 20.7132 11.3191 20.8262 11.3191C20.9391 11.3191 20.9391 11.2025 21.052 11.2025C21.165 11.2025 21.165 11.0585 21.2779 11.0585C21.3908 11.0585 21.3908 11.254 21.5038 11.254C21.6167 11.254 21.6167 11.1202 21.7296 11.1202C21.8426 11.1202 21.8426 11.2265 21.9555 11.2265C22.0684 11.2265 22.0684 11.35 22.1814 11.35C22.2943 11.35 22.2943 11.2471 22.4072 11.2471C22.5202 11.2471 22.5202 11.1476 22.6331 11.1476C22.746 11.1476 22.746 11.2574 22.859 11.2574C22.9719 11.2574 22.9719 11.2643 23.0848 11.2643C23.1978 11.2643 23.1978 11.1888 23.3107 11.1888C23.4236 11.1888 23.4236 11.2265 23.5366 11.2265C23.6495 11.2265 23.6495 11.3088 23.7624 11.3088C23.8754 11.3088 23.8754 11.0344 23.9883 11.0344C24.1012 11.0344 24.1012 11.2951 24.2142 11.2951C24.3271 11.2951 24.3271 11.3123 24.44 11.3123C24.553 11.3123 24.553 11.1545 24.6659 11.1545C24.7788 11.1545 24.7788 11.3329 24.8918 11.3329C25.0047 11.3329 25.0047 11.3054 25.1176 11.3054C25.2306 11.3054 25.2306 11.2677 25.3435 11.2677C25.4564 11.2677 25.4564 11.1271 25.5694 11.1271C25.6823 11.1271 25.6823 11.2745 25.7952 11.2745C25.9082 11.2745 25.9082 11.1442 26.0211 11.1442C26.134 11.1442 26.134 11.2094 26.247 11.2094C26.3599 11.2094 26.3599 11.1957 26.4728 11.1957C26.5858 11.1957 26.5858 11.1785 26.6987 11.1785C26.8116 11.1785 26.8116 11.2471 26.9246 11.2471C27.0375 11.2471 27.0375 11.2402 27.1504 11.2402C27.2634 11.2402 27.2634 11.2025 27.3763 11.2025C27.4893 11.2025 27.4893 11.0344 27.6022 11.0344C27.7151 11.0344 27.7151 11.1716 27.8281 11.1716C27.941 11.1716 27.941 11.3123 28.0539 11.3123C28.1669 11.3123 28.1669 11.1373 28.2798 11.1373C28.3927 11.1373 28.3927 11.1408 28.5057 11.1408C28.6186 11.1408 28.6186 11.2094 28.7315 11.2094C28.8445 11.2094 28.8445 11.1854 28.9574 11.1854C29.0703 11.1854 29.0703 11.2745 29.1833 11.2745C29.2962 11.2745 29.2962 11.3054 29.4091 11.3054C29.5221 11.3054 29.5221 11.1271 29.635 11.1271C29.7479 11.1271 29.7479 11.1648 29.8609 11.1648C29.9738 11.1648 29.9738 11.374 30.0867 11.374C30.1997 11.374 30.1997 11.0344 30.3126 11.0344C30.4255 11.0344 30.4255 11.1305 30.5385 11.1305C30.6514 11.1305 30.6514 11.1854 30.7643 11.1854C30.8773 11.1854 30.8773 11.1854 30.9902 11.1854C31.1031 11.1854 31.1031 11.1751 31.2161 11.1751C31.329 11.1751 31.329 11.2402 31.4419 11.2402C31.5549 11.2402 31.5549 11.0447 31.6678 11.0447C31.7807 11.0447 31.7807 11.1202 31.8937 11.1202C32.0066 11.1202 32.0066 11.1716 32.1195 11.1716C32.2325 11.1716 32.2325 11.3637 32.3454 11.3637C32.4583 11.3637 32.4583 11.3088 32.5713 11.3088C32.6842 11.3088 32.6842 11.1922 32.7971 11.1922C32.9101 11.1922 32.9101 11.0687 33.023 11.0687C33.1359 11.0687 33.1359 11.0928 33.2489 11.0928C33.3618 11.0928 33.3618 11.2471 33.4747 11.2471C33.5877 11.2471 33.5877 11.2197 33.7006 11.2197C33.8135 11.2197 33.8135 11.2986 33.9265 11.2986C34.0394 11.2986 34.0394 11.0859 34.1523 11.0859C34.2653 11.0859 34.2653 11.1957 34.3782 11.1957C34.4911 11.1957 34.4911 11.0687 34.6041 11.0687C34.717 11.0687 34.717 11.1785 34.8299 11.1785C34.9429 11.1785 34.9429 11.3431 35.0558 11.3431C35.1687 11.3431 35.1687 11.2574 35.2817 11.2574C35.3946 11.2574 35.3946 11.2265 35.5076 11.2265C35.6205 11.2265 35.6205 11.2265 35.7334 11.2265C35.8464 11.2265 35.8464 11.302 35.9593 11.302C36.0722 11.302 36.0722 11.2986 36.1852 11.2986C36.2981 11.2986 36.2981 11.374 36.411 11.374C36.524 11.374 36.524 11.1854 36.6369 11.1854C36.7498 11.1854 36.7498 11.1442 36.8628 11.1442C36.9757 11.1442 36.9757 11.3534 37.0886 11.3534C37.2016 11.3534 37.2016 11.0928 37.3145 11.0928C37.4274 11.0928 37.4274 11.3774 37.5404 11.3774C37.6533 11.3774 37.6533 11.0928 37.7662 11.0928C37.8792 11.0928 37.8792 11.3157 37.9921 11.3157C38.105 11.3157 38.105 11.0516 38.218 11.0516C38.3309 11.0516 38.3309 11.2848 38.4438 11.2848C38.5568 11.2848 38.5568 11.1099 38.6697 11.1099C38.7826 11.1099 38.7826 11.3226 38.8956 11.3226C39.0085 11.3226 39.0085 11.2231 39.1246 11.2231C39.2375 11.2231 39.2375 11.2402 39.3536 11.2402C39.4665 11.2402 39.4665 11.2059 39.5794 11.2059C39.6924 11.2059 39.6924 11.3706 39.8053 11.3706C39.9182 11.3706 39.9182 11.3706 40.0312 11.3706C40.1441 11.3706 40.1441 11.1785 40.257 11.1785C40.37 11.1785 40.37 11.3637 40.4829 11.3637C40.5958 11.3637 40.5958 11.3088 40.7088 11.3088C40.8217 11.3088 40.8217 11.3603 40.9346 11.3603C41.0476 11.3603 41.0476 11.2574 41.1605 11.2574C41.2734 11.2574 41.2734 11.2883 41.3895 11.2883C41.5025 11.2883 41.5025 11.0585 41.6185 11.0585C41.7315 11.0585 41.7315 11.079 41.8475 11.079C41.9605 11.079 41.9605 11.0585 42.0765 11.0585C42.1895 11.0585 42.1895 11.3671 42.3024 11.3671C42.4153 11.3671 42.4153 11.1716 42.5283 11.1716C42.6412 11.1716 42.6412 11.2643 42.7573 11.2643C42.8702 11.2643 42.8702 11.1785 42.9863 11.1785C43.0992 11.1785 43.0992 11.3123 43.2153 11.3123C43.3282 11.3123 43.3282 11.2094 43.4443 11.2094C43.5572 11.2094 43.5572 11.2574 43.6733 11.2574C43.7862 11.2574 43.7862 11.1339 43.9023 11.1339C44.0152 11.1339 44.0152 11.2574 44.1282 11.2574C44.2411 11.2574 44.2411 11.1854 44.354 11.1854C44.467 11.1854 44.467 11.1751 44.5799 11.1751C44.6928 11.1751 44.6928 11.1579 44.8089 11.1579C44.9218 11.1579 44.9218 11.1133 45.0379 11.1133C45.1508 11.1133 45.1508 11.1339 45.2669 11.1339C45.3798 11.1339 45.3798 11.055 45.4959 11.055C45.6089 11.055 45.6089 11.1716 45.7249 11.1716C45.8379 11.1716 45.8379 11.2643 45.9539 11.2643C46.0669 11.2643 46.0669 11.3329 46.1829 11.3329C46.2959 11.3329 46.2959 11.0585 46.4119 11.0585C46.528 11.0585 46.528 11.055 46.6409 11.055C46.7539 11.055 46.7539 11.0516 46.8699 11.0516C46.9829 11.0516 46.9829 11.3191 47.0989 11.3191C47.2119 11.3191 47.2119 11.1065 47.328 11.1065C47.444 11.1065 47.444 11.3191 47.557 11.3191C47.673 11.3191 47.673 11.2505 47.786 11.2505C47.902 11.2505 47.902 11.2437 48.015 11.2437C48.131 11.2437 48.3036 11.3671 48.3475 11.2505C48.3914 11.1373 48.1059 11.1819 48.0244 11.0996C47.9428 11.0173 47.9491 11.007 47.8675 10.9247C47.786 10.8424 47.902 10.7086 47.8205 10.6229C47.7389 10.5405 47.7075 10.5783 47.626 10.4925C47.5444 10.4102 47.5287 10.4273 47.4472 10.345C47.3656 10.2627 47.2778 10.3656 47.1962 10.2799C47.1146 10.1975 47.1366 10.1701 47.055 10.0878C46.9735 10.0055 47.099 9.85798 47.0174 9.77566C46.9358 9.69334 46.8511 9.78938 46.7696 9.70706C46.688 9.62474 46.7037 9.60759 46.6221 9.52184C46.5406 9.43953 46.5688 9.40523 46.4872 9.32291C46.4057 9.24059 46.3147 9.34349 46.2331 9.26117C46.1516 9.17542 46.1578 9.17199 46.0763 9.08624C45.9947 9.0005 45.9916 9.00392 45.91 8.92161C45.8284 8.83586 45.9006 8.75354 45.819 8.66779C45.7375 8.58204 45.7845 8.53059 45.6998 8.44485C45.6183 8.3591 45.6151 8.36596 45.5336 8.28021C45.452 8.19446 45.3234 8.34538 45.2418 8.26306C45.1603 8.17731 45.1508 8.1876 45.0693 8.10528C44.9877 8.01953 45.0128 7.99209 44.9312 7.90635C44.8497 7.8206 44.8654 7.80688 44.7838 7.72113C44.7022 7.63538 44.6489 7.70055 44.5674 7.6148C44.4858 7.52905 44.6803 7.30268 44.5987 7.22036C44.5172 7.13461 44.4042 7.26495 44.3227 7.18263C44.2411 7.09688 44.2129 7.13118 44.1313 7.04543C44.0497 6.95968 44.1595 6.83278 44.078 6.74703C43.9964 6.66128 43.9713 6.69215 43.8897 6.6064C43.8082 6.52065 43.8458 6.47606 43.7643 6.39375C43.6827 6.308 43.6984 6.29085 43.6168 6.2051C43.5353 6.11935 43.369 6.31486 43.2874 6.22911C43.2059 6.14336 43.3439 5.98558 43.2623 5.89984C43.1808 5.81409 43.049 5.96843 42.9675 5.88269C42.8859 5.79694 42.9831 5.68375 42.9016 5.60143C42.82 5.51568 42.7259 5.62887 42.6443 5.54312C42.5628 5.4608 42.6851 5.31675 42.6036 5.23443C42.522 5.15211 42.3651 5.3339 42.2836 5.24815C42.202 5.16583 42.1957 5.17269 42.1142 5.09037C42.0326 5.00805 42.0483 4.98747 41.9667 4.90172C41.8852 4.81598 42.0044 4.67878 41.9228 4.59303C41.8413 4.50728 41.722 4.64791 41.6373 4.56216C41.5558 4.47641 41.5589 4.47298 41.4742 4.39066C41.3927 4.30492 41.4491 4.23975 41.3676 4.15743C41.286 4.07168 41.3832 3.95849 41.3017 3.87617C41.2201 3.79043 41.1637 3.85902 41.0821 3.77328C41.0005 3.68753 41.0131 3.67381 40.9315 3.58806C40.8499 3.50231 40.737 3.63608 40.6523 3.55033C40.5707 3.46458 40.5864 3.44743 40.5049 3.36168C40.4233 3.27937 40.417 3.2828 40.3355 3.20048C40.2539 3.11473 40.3982 2.94666 40.3166 2.86434C40.2351 2.7786 40.1065 2.92608 40.0249 2.84033C39.9433 2.75459 39.959 2.73744 39.8775 2.65169C39.7959 2.56594 39.8712 2.48019 39.7865 2.39444C39.7049 2.30869 39.73 2.27782 39.6453 2.19208C39.5606 2.10633 39.5167 2.15778 39.4351 2.07203C39.3536 1.98628 39.2657 2.08575 39.1842 2" stroke="#184E77" stroke-width="2" stroke-miterlimit="10" stroke-linecap="round" stroke-linejoin="round"/>
</svg>
