<svg width="1200" height="5" viewBox="0 0 1200 5" fill="none" xmlns="http://www.w3.org/2000/svg">
<g clip-path="url(#clip0)">
<path d="M0 2.15888C0.499873 2.15888 0.499873 2.04673 0.999745 2.04673C1.49962 2.04673 1.49962 2.24299 1.99949 2.24299C2.49936 2.24299 2.49936 2.63551 2.99924 2.63551C3.49911 2.63551 3.49911 2.24299 3.99898 2.24299C4.49885 2.24299 4.49885 2.83178 4.99873 2.83178C5.4986 2.83178 5.4986 2.88785 5.99847 2.88785C6.49835 2.88785 6.49834 2.37383 6.99822 2.37383C7.49809 2.37383 7.49809 2.88785 7.99796 2.88785C8.49784 2.88785 8.49784 2.13084 8.99771 2.13084C9.49758 2.13084 9.49758 2.28037 9.99745 2.28037C10.4973 2.28037 10.4973 2.71028 10.9972 2.71028C11.4971 2.71028 11.4971 2.85981 11.9969 2.85981C12.4968 2.85981 12.4968 2.70093 12.9967 2.70093C13.4966 2.70093 13.4966 2.39252 13.9964 2.39252C14.4963 2.39252 14.4963 2.20561 14.9962 2.20561C15.4961 2.20561 15.4961 2.29907 15.9959 2.29907C16.4958 2.29907 16.4958 2.15888 16.9957 2.15888C17.4955 2.15888 17.4955 2.20561 17.9954 2.20561C18.4953 2.20561 18.4953 2.61682 18.9952 2.61682C19.495 2.61682 19.495 2.31776 19.9949 2.31776C20.4948 2.31776 20.4948 2.25234 20.9947 2.25234C21.4945 2.25234 21.4945 2.72897 21.9944 2.72897C22.4943 2.72897 22.4943 2.3271 22.9941 2.3271C23.494 2.3271 23.494 2.29907 23.9939 2.29907C24.4938 2.29907 24.4938 2.64486 24.9936 2.64486C25.4935 2.64486 25.4935 2.75701 25.9934 2.75701C26.4933 2.75701 26.4933 2.91589 26.9931 2.91589C27.493 2.91589 27.493 2.38318 27.9929 2.38318C28.4927 2.38318 28.4927 2.3271 28.9926 2.3271C29.4925 2.3271 29.4925 2.07477 29.9924 2.07477C30.4922 2.07477 30.4922 2.25234 30.9921 2.25234C31.492 2.25234 31.492 2.33645 31.9919 2.33645C32.4917 2.33645 32.4917 2.13084 32.9916 2.13084C33.4915 2.13084 33.4915 2.76636 33.9913 2.76636C34.4912 2.76636 34.4912 2.71028 34.9911 2.71028C35.491 2.71028 35.491 2.14953 35.9908 2.14953C36.4907 2.14953 36.4907 2.34579 36.9906 2.34579C37.4905 2.34579 37.4905 2.88785 37.9903 2.88785C38.4902 2.88785 38.4902 2.29907 38.9901 2.29907C39.4899 2.29907 39.4899 2.2243 39.9898 2.2243C40.4897 2.2243 40.4897 2.07477 40.9896 2.07477C41.4894 2.07477 41.4894 2.29907 41.9893 2.29907C42.4892 2.29907 42.4892 2.1215 42.9891 2.1215C43.4889 2.1215 43.4889 2.11215 43.9888 2.11215C44.4887 2.11215 44.4887 2.8972 44.9885 2.8972C45.4884 2.8972 45.4884 2.68224 45.9883 2.68224C46.4882 2.68224 46.4882 2.45794 46.988 2.45794C47.4879 2.45794 47.4879 2.85047 47.9878 2.85047C48.4877 2.85047 48.4876 2.61682 48.9875 2.61682C49.4874 2.61682 49.4874 2.7757 49.9873 2.7757C50.4871 2.7757 50.4871 2.29907 50.987 2.29907C51.4869 2.29907 51.4869 2.64486 51.9868 2.64486C52.4866 2.64486 52.4866 2.34579 52.9865 2.34579C53.4864 2.34579 53.4864 2.68224 53.9863 2.68224C54.4861 2.68224 54.4861 2.63551 54.986 2.63551C55.4859 2.63551 55.4859 2.26168 55.9857 2.26168C56.4856 2.26168 56.4856 2.57944 56.9855 2.57944C57.4854 2.57944 57.4854 2.42991 57.9852 2.42991C58.4851 2.42991 58.4851 2.08411 58.985 2.08411C59.4848 2.08411 59.4849 2.21495 59.9847 2.21495C60.4846 2.21495 60.4846 2.88785 60.9845 2.88785C61.4843 2.88785 61.4843 2.11215 61.9842 2.11215C62.4841 2.11215 62.4841 2.19626 62.984 2.19626C63.4838 2.19626 63.4838 2.6729 63.9837 2.6729C64.4836 2.6729 64.4836 2.46729 64.9834 2.46729C65.4833 2.46729 65.4833 2.70093 65.9832 2.70093C66.4831 2.70093 66.4831 2.38318 66.9829 2.38318C67.4828 2.38318 67.4828 2.07477 67.9827 2.07477C68.4826 2.07477 68.4826 2.16822 68.9824 2.16822C69.4823 2.16822 69.4823 2.78505 69.9822 2.78505C70.4821 2.78505 70.482 2.76636 70.9819 2.76636C71.4818 2.76636 71.4818 2.5514 71.9817 2.5514C72.4815 2.5514 72.4815 2.34579 72.9814 2.34579C73.4813 2.34579 73.4813 2.48598 73.9812 2.48598C74.481 2.48598 74.481 2.58878 74.9809 2.58878C75.4808 2.58878 75.4808 2.43925 75.9807 2.43925C76.4805 2.43925 76.4805 2.93458 76.9804 2.93458C77.4803 2.93458 77.4803 2.29907 77.9801 2.29907C78.48 2.29907 78.48 2.86916 78.9799 2.86916C79.4798 2.86916 79.4798 2.48598 79.9796 2.48598C80.4795 2.48598 80.4795 2.75701 80.9794 2.75701C81.4792 2.75701 81.4793 2.51402 81.9791 2.51402C82.479 2.51402 82.479 2.93458 82.9789 2.93458C83.4787 2.93458 83.4787 2.29907 83.9786 2.29907C84.4785 2.29907 84.4785 2.53271 84.9784 2.53271C85.4782 2.53271 85.4782 2.1215 85.9781 2.1215C86.478 2.1215 86.478 2.35514 86.9778 2.35514C87.4777 2.35514 87.4777 2.60748 87.9776 2.60748C88.4775 2.60748 88.4775 2.33645 88.9773 2.33645C89.4772 2.33645 89.4772 2.11215 89.9771 2.11215C90.477 2.11215 90.477 2.52336 90.9768 2.52336C91.4767 2.52336 91.4767 2.80374 91.9766 2.80374C92.4764 2.80374 92.4764 2.34579 92.9763 2.34579C93.4762 2.34579 93.4762 2.45794 93.9761 2.45794C94.4759 2.45794 94.4759 2.52336 94.9758 2.52336C95.4757 2.52336 95.4757 2.72897 95.9756 2.72897C96.4754 2.72897 96.4754 2.36449 96.9753 2.36449C97.4752 2.36449 97.4752 2.49533 97.975 2.49533C98.4749 2.49533 98.4749 2.39252 98.9748 2.39252C99.4747 2.39252 99.4747 2.19626 99.9745 2.19626C100.474 2.19626 100.474 2.64486 100.974 2.64486C101.474 2.64486 101.474 2.56075 101.974 2.56075C102.474 2.56075 102.474 2.71028 102.974 2.71028C103.474 2.71028 103.474 2.24299 103.974 2.24299C104.473 2.24299 104.473 2.13084 104.973 2.13084C105.473 2.13084 105.473 2.27103 105.973 2.27103C106.473 2.27103 106.473 2.31776 106.973 2.31776C107.473 2.31776 107.473 2.6729 107.973 2.6729C108.472 2.6729 108.472 2.41122 108.972 2.41122C109.472 2.41122 109.472 2.85047 109.972 2.85047C110.472 2.85047 110.472 2.02804 110.972 2.02804C111.472 2.02804 111.472 2.76636 111.971 2.76636C112.471 2.76636 112.471 2.29907 112.971 2.29907C113.471 2.29907 113.471 2.34579 113.971 2.34579C114.471 2.34579 114.471 2.74766 114.971 2.74766C115.471 2.74766 115.471 2.27103 115.97 2.27103C116.47 2.27103 116.47 2.41122 116.97 2.41122C117.47 2.41122 117.47 2.2243 117.97 2.2243C118.47 2.2243 118.47 2.38318 118.97 2.38318C119.47 2.38318 119.47 2.33645 119.969 2.33645C120.469 2.33645 120.469 2.03738 120.969 2.03738C121.469 2.03738 121.469 2.21495 121.969 2.21495C122.469 2.21495 122.469 2.31776 122.969 2.31776C123.469 2.31776 123.469 2.46729 123.968 2.46729C124.468 2.46729 124.468 2.90654 124.968 2.90654C125.468 2.90654 125.468 2.71028 125.968 2.71028C126.468 2.71028 126.468 2.4486 126.968 2.4486C127.468 2.4486 127.468 2.4486 127.967 2.4486C128.467 2.4486 128.467 2.09346 128.967 2.09346C129.467 2.09346 129.467 2.75701 129.967 2.75701C130.467 2.75701 130.467 2.33645 130.967 2.33645C131.467 2.33645 131.467 2.59813 131.966 2.59813C132.466 2.59813 132.466 2.75701 132.966 2.75701C133.466 2.75701 133.466 2.84112 133.966 2.84112C134.466 2.84112 134.466 2.28037 134.966 2.28037C135.465 2.28037 135.465 2.88785 135.965 2.88785C136.465 2.88785 136.465 2.57944 136.965 2.57944C137.465 2.57944 137.465 2.23364 137.965 2.23364C138.465 2.23364 138.465 2.21495 138.965 2.21495C139.464 2.21495 139.464 2.58878 139.964 2.58878C140.464 2.58878 140.464 2.48598 140.964 2.48598C141.464 2.48598 141.464 2.01869 141.964 2.01869C142.464 2.01869 142.464 2.68224 142.964 2.68224C143.463 2.68224 143.463 2.07477 143.963 2.07477C144.463 2.07477 144.463 2.13084 144.963 2.13084C145.463 2.13084 145.463 2.60748 145.963 2.60748C146.463 2.60748 146.463 2.76636 146.963 2.76636C147.462 2.76636 147.462 2.72897 147.962 2.72897C148.462 2.72897 148.462 2.25234 148.962 2.25234C149.462 2.25234 149.462 2.14019 149.962 2.14019C150.462 2.14019 150.462 2.16822 150.962 2.16822C151.461 2.16822 151.461 2.85047 151.961 2.85047C152.461 2.85047 152.461 2.92523 152.961 2.92523C153.461 2.92523 153.461 2.54206 153.961 2.54206C154.461 2.54206 154.461 2.34579 154.961 2.34579C155.46 2.34579 155.46 2.41122 155.96 2.41122C156.46 2.41122 156.46 2.76636 156.96 2.76636C157.46 2.76636 157.46 2.31776 157.96 2.31776C158.46 2.31776 158.46 2.56075 158.96 2.56075C159.459 2.56075 159.459 2.28037 159.959 2.28037C160.459 2.28037 160.459 2.09346 160.959 2.09346C161.459 2.09346 161.459 2.50467 161.959 2.50467C162.459 2.50467 162.459 2.70093 162.958 2.70093C163.458 2.70093 163.458 2.49533 163.958 2.49533C164.458 2.49533 164.458 2.11215 164.958 2.11215C165.458 2.11215 165.458 2.15888 165.958 2.15888C166.458 2.15888 166.458 2.01869 166.957 2.01869C167.457 2.01869 167.457 2.84112 167.957 2.84112C168.457 2.84112 168.457 2.16822 168.957 2.16822C169.457 2.16822 169.457 2.25234 169.957 2.25234C170.457 2.25234 170.457 2.1215 170.956 2.1215C171.456 2.1215 171.456 2.8972 171.956 2.8972C172.456 2.8972 172.456 2.09346 172.956 2.09346C173.456 2.09346 173.456 2.84112 173.956 2.84112C174.456 2.84112 174.456 2.28972 174.955 2.28972C175.455 2.28972 175.455 2.00935 175.955 2.00935C176.455 2.00935 176.455 2.25234 176.955 2.25234C177.455 2.25234 177.455 2.86916 177.955 2.86916C178.455 2.86916 178.455 2.90654 178.954 2.90654C179.454 2.90654 179.454 2.84112 179.954 2.84112C180.454 2.84112 180.454 2.85047 180.954 2.85047C181.454 2.85047 181.454 2.58878 181.954 2.58878C182.454 2.58878 182.454 2.36449 182.953 2.36449C183.453 2.36449 183.453 2.2243 183.953 2.2243C184.453 2.2243 184.453 2.5514 184.953 2.5514C185.453 2.5514 185.453 2.1028 185.953 2.1028C186.453 2.1028 186.453 2.33645 186.952 2.33645C187.452 2.33645 187.452 2.83178 187.952 2.83178C188.452 2.83178 188.452 2.49533 188.952 2.49533C189.452 2.49533 189.452 2.28037 189.952 2.28037C190.452 2.28037 190.452 2.78505 190.951 2.78505C191.451 2.78505 191.451 2.15888 191.951 2.15888C192.451 2.15888 192.451 2.85981 192.951 2.85981C193.451 2.85981 193.451 2.79439 193.951 2.79439C194.45 2.79439 194.45 2.81308 194.95 2.81308C195.45 2.81308 195.45 2.85981 195.95 2.85981C196.45 2.85981 196.45 2.69159 196.95 2.69159C197.45 2.69159 197.45 2.49533 197.95 2.49533C198.449 2.49533 198.449 2.73832 198.949 2.73832C199.449 2.73832 199.449 2.70093 199.949 2.70093C200.449 2.70093 200.449 2.21495 200.949 2.21495C201.449 2.21495 201.449 2.37383 201.949 2.37383C202.448 2.37383 202.448 2.60748 202.948 2.60748C203.448 2.60748 203.448 2.33645 203.948 2.33645C204.448 2.33645 204.448 2.49533 204.948 2.49533C205.448 2.49533 205.448 2.40187 205.948 2.40187C206.447 2.40187 206.447 2.29907 206.947 2.29907C207.447 2.29907 207.447 2.6729 207.947 2.6729C208.447 2.6729 208.447 2.69159 208.947 2.69159C209.447 2.69159 209.447 2.85047 209.947 2.85047C210.446 2.85047 210.446 2.85981 210.946 2.85981C211.446 2.85981 211.446 2.60748 211.946 2.60748C212.446 2.60748 212.446 2.70093 212.946 2.70093C213.446 2.70093 213.446 2.13084 213.946 2.13084C214.445 2.13084 214.445 2.07477 214.945 2.07477C215.445 2.07477 215.445 2.66355 215.945 2.66355C216.445 2.66355 216.445 2.25234 216.945 2.25234C217.445 2.25234 217.445 2.8972 217.945 2.8972C218.444 2.8972 218.444 2.78505 218.944 2.78505C219.444 2.78505 219.444 2.90654 219.944 2.90654C220.444 2.90654 220.444 2.23364 220.944 2.23364C221.444 2.23364 221.444 2.35514 221.943 2.35514C222.443 2.35514 222.443 2.38318 222.943 2.38318C223.443 2.38318 223.443 2.40187 223.943 2.40187C224.443 2.40187 224.443 2.1215 224.943 2.1215C225.443 2.1215 225.443 2.03738 225.942 2.03738C226.442 2.03738 226.442 2.79439 226.942 2.79439C227.442 2.79439 227.442 2.79439 227.942 2.79439C228.442 2.79439 228.442 2.34579 228.942 2.34579C229.442 2.34579 229.442 2.74766 229.941 2.74766C230.441 2.74766 230.441 2.74766 230.941 2.74766C231.441 2.74766 231.441 2.57009 231.941 2.57009C232.441 2.57009 232.441 2.23364 232.941 2.23364C233.441 2.23364 233.441 2.81308 233.94 2.81308C234.44 2.81308 234.44 2.23364 234.94 2.23364C235.44 2.23364 235.44 2.4486 235.94 2.4486C236.44 2.4486 236.44 2.74766 236.94 2.74766C237.44 2.74766 237.44 2.2243 237.939 2.2243C238.439 2.2243 238.439 2.61682 238.939 2.61682C239.439 2.61682 239.439 2.74766 239.939 2.74766C240.439 2.74766 240.439 2.63551 240.939 2.63551C241.439 2.63551 241.439 2.47664 241.938 2.47664C242.438 2.47664 242.438 2.20561 242.938 2.20561C243.438 2.20561 243.438 2.03738 243.938 2.03738C244.438 2.03738 244.438 2.73832 244.938 2.73832C245.437 2.73832 245.437 2.80374 245.937 2.80374C246.437 2.80374 246.437 2.57009 246.937 2.57009C247.437 2.57009 247.437 2.14953 247.937 2.14953C248.437 2.14953 248.437 2.5514 248.937 2.5514C249.436 2.5514 249.436 2.45794 249.936 2.45794C250.436 2.45794 250.436 2.19626 250.936 2.19626C251.436 2.19626 251.436 2.78505 251.936 2.78505C252.436 2.78505 252.436 2.72897 252.936 2.72897C253.435 2.72897 253.435 2.08411 253.935 2.08411C254.435 2.08411 254.435 2.86916 254.935 2.86916C255.435 2.86916 255.435 2.8785 255.935 2.8785C256.435 2.8785 256.435 2.42991 256.935 2.42991C257.434 2.42991 257.434 2.64486 257.934 2.64486C258.434 2.64486 258.434 2.62617 258.934 2.62617C259.434 2.62617 259.434 2.27103 259.934 2.27103C260.434 2.27103 260.434 2.28972 260.934 2.28972C261.433 2.28972 261.433 2.48598 261.933 2.48598C262.433 2.48598 262.433 2.56075 262.933 2.56075C263.433 2.56075 263.433 2.04673 263.933 2.04673C264.433 2.04673 264.433 2.78505 264.933 2.78505C265.432 2.78505 265.432 2.15888 265.932 2.15888C266.432 2.15888 266.432 2.23364 266.932 2.23364C267.432 2.23364 267.432 2.85981 267.932 2.85981C268.432 2.85981 268.432 2.45794 268.931 2.45794C269.431 2.45794 269.431 2.65421 269.931 2.65421C270.431 2.65421 270.431 2.58878 270.931 2.58878C271.431 2.58878 271.431 2.33645 271.931 2.33645C272.431 2.33645 272.431 2.34579 272.93 2.34579C273.43 2.34579 273.43 2.85981 273.93 2.85981C274.43 2.85981 274.43 2.28037 274.93 2.28037C275.43 2.28037 275.43 2.06542 275.93 2.06542C276.43 2.06542 276.43 2.60748 276.929 2.60748C277.429 2.60748 277.429 2.65421 277.929 2.65421C278.429 2.65421 278.429 2.66355 278.929 2.66355C279.429 2.66355 279.429 2.85047 279.929 2.85047C280.429 2.85047 280.429 2.16822 280.928 2.16822C281.428 2.16822 281.428 2.27103 281.928 2.27103C282.428 2.27103 282.428 2.63551 282.928 2.63551C283.428 2.63551 283.428 2.51402 283.928 2.51402C284.428 2.51402 284.428 2.43925 284.927 2.43925C285.427 2.43925 285.427 2.57944 285.927 2.57944C286.427 2.57944 286.427 2.28972 286.927 2.28972C287.427 2.28972 287.427 2.94393 287.927 2.94393C288.427 2.94393 288.427 2.63551 288.926 2.63551C289.426 2.63551 289.426 2.50467 289.926 2.50467C290.426 2.50467 290.426 2.14019 290.926 2.14019C291.426 2.14019 291.426 2.20561 291.926 2.20561C292.426 2.20561 292.426 2.42991 292.925 2.42991C293.425 2.42991 293.425 2.90654 293.925 2.90654C294.425 2.90654 294.425 2.1028 294.925 2.1028C295.425 2.1028 295.425 2.14953 295.925 2.14953C296.425 2.14953 296.425 2.6729 296.924 2.6729C297.424 2.6729 297.424 2.02804 297.924 2.02804C298.424 2.02804 298.424 2.7757 298.924 2.7757C299.424 2.7757 299.424 2.26168 299.924 2.26168C300.423 2.26168 300.423 2.72897 300.923 2.72897C301.423 2.72897 301.423 2.83178 301.923 2.83178C302.423 2.83178 302.423 2.78505 302.923 2.78505C303.423 2.78505 303.423 2.8972 303.923 2.8972C304.422 2.8972 304.422 2.15888 304.922 2.15888C305.422 2.15888 305.422 2.50467 305.922 2.50467C306.422 2.50467 306.422 2.38318 306.922 2.38318C307.422 2.38318 307.422 2.65421 307.922 2.65421C308.421 2.65421 308.421 2.50467 308.921 2.50467C309.421 2.50467 309.421 2.29907 309.921 2.29907C310.421 2.29907 310.421 2.45794 310.921 2.45794C311.421 2.45794 311.421 2.74766 311.921 2.74766C312.42 2.74766 312.42 2.7757 312.92 2.7757C313.42 2.7757 313.42 2.21495 313.92 2.21495C314.42 2.21495 314.42 2.38318 314.92 2.38318C315.42 2.38318 315.42 2.23364 315.92 2.23364C316.419 2.23364 316.419 2.3271 316.919 2.3271C317.419 2.3271 317.419 2.88785 317.919 2.88785C318.419 2.88785 318.419 2.81308 318.919 2.81308C319.419 2.81308 319.419 2.40187 319.919 2.40187C320.418 2.40187 320.418 2.65421 320.918 2.65421C321.418 2.65421 321.418 2.57009 321.918 2.57009C322.418 2.57009 322.418 2.8972 322.918 2.8972C323.418 2.8972 323.418 2.54206 323.918 2.54206C324.417 2.54206 324.417 2.30841 324.917 2.30841C325.417 2.30841 325.417 2.1215 325.917 2.1215C326.417 2.1215 326.417 2.51402 326.917 2.51402C327.417 2.51402 327.417 2.40187 327.916 2.40187C328.416 2.40187 328.416 2.60748 328.916 2.60748C329.416 2.60748 329.416 2.3271 329.916 2.3271C330.416 2.3271 330.416 2.91589 330.916 2.91589C331.416 2.91589 331.416 2.11215 331.915 2.11215C332.415 2.11215 332.415 2.41122 332.915 2.41122C333.415 2.41122 333.415 2.54206 333.915 2.54206C334.415 2.54206 334.415 2.20561 334.915 2.20561C335.415 2.20561 335.415 2.5514 335.914 2.5514C336.414 2.5514 336.414 2.45794 336.914 2.45794C337.414 2.45794 337.414 2.88785 337.914 2.88785C338.414 2.88785 338.414 2.59813 338.914 2.59813C339.414 2.59813 339.414 2.79439 339.913 2.79439C340.413 2.79439 340.413 2.23364 340.913 2.23364C341.413 2.23364 341.413 2.04673 341.913 2.04673C342.413 2.04673 342.413 2.3271 342.913 2.3271C343.413 2.3271 343.413 2.06542 343.912 2.06542C344.412 2.06542 344.412 2.34579 344.912 2.34579C345.412 2.34579 345.412 2.28972 345.912 2.28972C346.412 2.28972 346.412 2.26168 346.912 2.26168C347.412 2.26168 347.412 2.8785 347.911 2.8785C348.411 2.8785 348.411 2.90654 348.911 2.90654C349.411 2.90654 349.411 2.68224 349.911 2.68224C350.411 2.68224 350.411 2.2243 350.911 2.2243C351.411 2.2243 351.411 2.4486 351.91 2.4486C352.41 2.4486 352.41 2.49533 352.91 2.49533C353.41 2.49533 353.41 2.13084 353.91 2.13084C354.41 2.13084 354.41 2.60748 354.91 2.60748C355.409 2.60748 355.409 2.28037 355.909 2.28037C356.409 2.28037 356.409 2.96262 356.909 2.96262C357.409 2.96262 357.409 2.70093 357.909 2.70093C358.409 2.70093 358.409 2.52336 358.909 2.52336C359.408 2.52336 359.408 2.85981 359.908 2.85981C360.408 2.85981 360.408 2.52336 360.908 2.52336C361.408 2.52336 361.408 2.28037 361.908 2.28037C362.408 2.28037 362.408 2.53271 362.908 2.53271C363.407 2.53271 363.407 2.90654 363.907 2.90654C364.407 2.90654 364.407 2.80374 364.907 2.80374C365.407 2.80374 365.407 2.31776 365.907 2.31776C366.407 2.31776 366.407 2.11215 366.907 2.11215C367.406 2.11215 367.406 2.72897 367.906 2.72897C368.406 2.72897 368.406 2.83178 368.906 2.83178C369.406 2.83178 369.406 2.92523 369.906 2.92523C370.406 2.92523 370.406 2.86916 370.906 2.86916C371.405 2.86916 371.405 2.37383 371.905 2.37383C372.405 2.37383 372.405 2.14019 372.905 2.14019C373.405 2.14019 373.405 2.88785 373.905 2.88785C374.405 2.88785 374.405 2.96262 374.905 2.96262C375.404 2.96262 375.404 2.40187 375.904 2.40187C376.404 2.40187 376.404 2.65421 376.904 2.65421C377.404 2.65421 377.404 2.72897 377.904 2.72897C378.404 2.72897 378.404 2.06542 378.904 2.06542C379.403 2.06542 379.403 2.57944 379.903 2.57944C380.403 2.57944 380.403 2.4486 380.903 2.4486C381.403 2.4486 381.403 2.29907 381.903 2.29907C382.403 2.29907 382.403 2.34579 382.902 2.34579C383.402 2.34579 383.402 2.78505 383.902 2.78505C384.402 2.78505 384.402 2.19626 384.902 2.19626C385.402 2.19626 385.402 2.48598 385.902 2.48598C386.402 2.48598 386.402 2.51402 386.901 2.51402C387.401 2.51402 387.401 2.20561 387.901 2.20561C388.401 2.20561 388.401 2.19626 388.901 2.19626C389.401 2.19626 389.401 2.20561 389.901 2.20561C390.401 2.20561 390.401 2.96262 390.9 2.96262C391.4 2.96262 391.4 2.03738 391.9 2.03738C392.4 2.03738 392.4 2.36449 392.9 2.36449C393.4 2.36449 393.4 2.20561 393.9 2.20561C394.4 2.20561 394.4 2.26168 394.899 2.26168C395.399 2.26168 395.399 2.28037 395.899 2.28037C396.399 2.28037 396.399 2.8972 396.899 2.8972C397.399 2.8972 397.399 2.31776 397.899 2.31776C398.399 2.31776 398.399 2.1215 398.898 2.1215C399.398 2.1215 399.398 2.42056 399.898 2.42056C400.398 2.42056 400.398 2.91589 400.898 2.91589C401.398 2.91589 401.398 2.65421 401.898 2.65421C402.398 2.65421 402.398 2.05607 402.897 2.05607C403.397 2.05607 403.397 2.21495 403.897 2.21495C404.397 2.21495 404.397 2.24299 404.897 2.24299C405.397 2.24299 405.397 2.78505 405.897 2.78505C406.397 2.78505 406.397 2.62617 406.896 2.62617C407.396 2.62617 407.396 2.1028 407.896 2.1028C408.396 2.1028 408.396 2.81308 408.896 2.81308C409.396 2.81308 409.396 2.11215 409.896 2.11215C410.395 2.11215 410.396 2.38318 410.895 2.38318C411.395 2.38318 411.395 2.27103 411.895 2.27103C412.395 2.27103 412.395 2.59813 412.895 2.59813C413.395 2.59813 413.395 2.75701 413.895 2.75701C414.394 2.75701 414.394 2.5514 414.894 2.5514C415.394 2.5514 415.394 2.69159 415.894 2.69159C416.394 2.69159 416.394 2.8785 416.894 2.8785C417.394 2.8785 417.394 2.39252 417.894 2.39252C418.393 2.39252 418.393 2.81308 418.893 2.81308C419.393 2.81308 419.393 2.19626 419.893 2.19626C420.393 2.19626 420.393 2.16822 420.893 2.16822C421.393 2.16822 421.393 2.65421 421.893 2.65421C422.392 2.65421 422.392 2.23364 422.892 2.23364C423.392 2.23364 423.392 2.69159 423.892 2.69159C424.392 2.69159 424.392 2.21495 424.892 2.21495C425.392 2.21495 425.392 2.65421 425.892 2.65421C426.391 2.65421 426.391 2.60748 426.891 2.60748C427.391 2.60748 427.391 2.54206 427.891 2.54206C428.391 2.54206 428.391 2.28972 428.891 2.28972C429.391 2.28972 429.391 2.53271 429.891 2.53271C430.39 2.53271 430.39 2.25234 430.89 2.25234C431.39 2.25234 431.39 2.02804 431.89 2.02804C432.39 2.02804 432.39 2.42991 432.89 2.42991C433.39 2.42991 433.39 2.29907 433.89 2.29907C434.389 2.29907 434.389 2.58878 434.889 2.58878C435.389 2.58878 435.389 2.1215 435.889 2.1215C436.389 2.1215 436.389 2.09346 436.889 2.09346C437.389 2.09346 437.389 2.16822 437.888 2.16822C438.388 2.16822 438.388 2.63551 438.888 2.63551C439.388 2.63551 439.388 2.69159 439.888 2.69159C440.388 2.69159 440.388 2.8972 440.888 2.8972C441.388 2.8972 441.388 2.91589 441.887 2.91589C442.387 2.91589 442.387 2.66355 442.887 2.66355C443.387 2.66355 443.387 2.79439 443.887 2.79439C444.387 2.79439 444.387 2.71963 444.887 2.71963C445.387 2.71963 445.387 2.92523 445.886 2.92523C446.386 2.92523 446.386 2.49533 446.886 2.49533C447.386 2.49533 447.386 2.73832 447.886 2.73832C448.386 2.73832 448.386 2.88785 448.886 2.88785C449.386 2.88785 449.386 2.64486 449.885 2.64486C450.385 2.64486 450.385 2.58878 450.885 2.58878C451.385 2.58878 451.385 2.04673 451.885 2.04673C452.385 2.04673 452.385 2.71963 452.885 2.71963C453.385 2.71963 453.385 2.03738 453.884 2.03738C454.384 2.03738 454.384 2.7757 454.884 2.7757C455.384 2.7757 455.384 2.39252 455.884 2.39252C456.384 2.39252 456.384 2.21495 456.884 2.21495C457.384 2.21495 457.384 2.49533 457.883 2.49533C458.383 2.49533 458.383 2.06542 458.883 2.06542C459.383 2.06542 459.383 2.23364 459.883 2.23364C460.383 2.23364 460.383 2.05607 460.883 2.05607C461.383 2.05607 461.383 2.63551 461.882 2.63551C462.382 2.63551 462.382 2.79439 462.882 2.79439C463.382 2.79439 463.382 2.39252 463.882 2.39252C464.382 2.39252 464.382 2.15888 464.882 2.15888C465.381 2.15888 465.381 2.31776 465.881 2.31776C466.381 2.31776 466.381 2.13084 466.881 2.13084C467.381 2.13084 467.381 2.8785 467.881 2.8785C468.381 2.8785 468.381 2.83178 468.881 2.83178C469.38 2.83178 469.38 2.2243 469.88 2.2243C470.38 2.2243 470.38 2.83178 470.88 2.83178C471.38 2.83178 471.38 2.46729 471.88 2.46729C472.38 2.46729 472.38 2.2243 472.88 2.2243C473.379 2.2243 473.379 2.31776 473.879 2.31776C474.379 2.31776 474.379 2.3271 474.879 2.3271C475.379 2.3271 475.379 2.26168 475.879 2.26168C476.379 2.26168 476.379 2.82243 476.879 2.82243C477.378 2.82243 477.378 2.42056 477.878 2.42056C478.378 2.42056 478.378 2.23364 478.878 2.23364C479.378 2.23364 479.378 2.17757 479.878 2.17757C480.378 2.17757 480.378 2.61682 480.878 2.61682C481.377 2.61682 481.377 2.42991 481.877 2.42991C482.377 2.42991 482.377 2.72897 482.877 2.72897C483.377 2.72897 483.377 2.54206 483.877 2.54206C484.377 2.54206 484.377 2.47664 484.877 2.47664C485.376 2.47664 485.376 2.80374 485.876 2.80374C486.376 2.80374 486.376 2.71028 486.876 2.71028C487.376 2.71028 487.376 2.90654 487.876 2.90654C488.376 2.90654 488.376 2.62617 488.875 2.62617C489.375 2.62617 489.375 2.70093 489.875 2.70093C490.375 2.70093 490.375 2.71963 490.875 2.71963C491.375 2.71963 491.375 2.6729 491.875 2.6729C492.375 2.6729 492.375 2.90654 492.874 2.90654C493.374 2.90654 493.374 2.1028 493.874 2.1028C494.374 2.1028 494.374 2.57009 494.874 2.57009C495.374 2.57009 495.374 2.03738 495.874 2.03738C496.374 2.03738 496.374 2.05607 496.873 2.05607C497.373 2.05607 497.373 2.46729 497.873 2.46729C498.373 2.46729 498.373 2.85981 498.873 2.85981C499.373 2.85981 499.373 2.41122 499.873 2.41122C500.373 2.41122 500.373 2.37383 500.872 2.37383C501.372 2.37383 501.372 2.90654 501.872 2.90654C502.372 2.90654 502.372 2.42056 502.872 2.42056C503.372 2.42056 503.372 2.94393 503.872 2.94393C504.372 2.94393 502.872 2.02804 503.358 2.02804C503.844 2.02804 503.858 2.29907 504.358 2.29907C504.858 2.29907 504.858 2.4486 505.357 2.4486C505.857 2.4486 505.857 2.43925 506.357 2.43925C506.857 2.43925 506.857 2.46729 507.357 2.46729C507.857 2.46729 507.857 2.40187 508.357 2.40187C508.856 2.40187 508.856 2.09346 509.356 2.09346C509.856 2.09346 509.856 2.50467 510.356 2.50467C510.856 2.50467 510.856 2.49533 511.356 2.49533C511.856 2.49533 511.856 2.04673 512.356 2.04673C512.855 2.04673 512.855 2.04673 513.355 2.04673C513.855 2.04673 513.855 2.50467 514.355 2.50467C514.855 2.50467 514.855 2.41122 515.355 2.41122C515.855 2.41122 515.855 2.43925 516.355 2.43925C516.854 2.43925 516.854 2.34579 517.354 2.34579C517.854 2.34579 517.854 2.70093 518.354 2.70093C518.854 2.70093 518.854 2.86916 519.354 2.86916C519.854 2.86916 519.854 2.57009 520.354 2.57009C520.853 2.57009 520.853 2.78505 521.353 2.78505C521.853 2.78505 521.853 2.33645 522.353 2.33645C522.853 2.33645 522.853 2.33645 523.353 2.33645C523.853 2.33645 523.853 2.86916 524.353 2.86916C524.852 2.86916 524.852 2.47664 525.352 2.47664C525.852 2.47664 525.852 2.62617 526.352 2.62617C526.852 2.62617 526.852 2.07477 527.352 2.07477C527.852 2.07477 527.852 2.63551 528.352 2.63551C528.851 2.63551 528.851 2.1028 529.351 2.1028C529.851 2.1028 529.851 2.31776 530.351 2.31776C530.851 2.31776 530.851 2.91589 531.351 2.91589C531.851 2.91589 531.851 2.01869 532.351 2.01869C532.85 2.01869 532.85 2.76636 533.35 2.76636C533.85 2.76636 533.85 2.29907 534.35 2.29907C534.85 2.29907 534.85 2.63551 535.35 2.63551C535.85 2.63551 535.85 2.2243 536.35 2.2243C536.849 2.2243 536.849 2.03738 537.349 2.03738C537.849 2.03738 537.849 2.20561 538.349 2.20561C538.849 2.20561 538.849 2.6729 539.349 2.6729C539.849 2.6729 539.849 2.81308 540.348 2.81308C540.848 2.81308 540.848 2.68224 541.348 2.68224C541.848 2.68224 541.848 2.79439 542.348 2.79439C542.848 2.79439 542.848 2.04673 543.348 2.04673C543.848 2.04673 543.848 2.86916 544.347 2.86916C544.847 2.86916 544.847 2.91589 545.347 2.91589C545.847 2.91589 545.847 2.58878 546.347 2.58878C546.847 2.58878 546.847 2.19626 547.347 2.19626C547.847 2.19626 547.847 2.81308 548.346 2.81308C548.846 2.81308 548.846 2.25234 549.346 2.25234C549.846 2.25234 549.846 2.50467 550.346 2.50467C550.846 2.50467 550.846 2.39252 551.346 2.39252C551.846 2.39252 551.846 2.51402 552.345 2.51402C552.845 2.51402 552.845 2.17757 553.345 2.17757C553.845 2.17757 553.845 2.48598 554.345 2.48598C554.845 2.48598 554.845 2.16822 555.345 2.16822C555.845 2.16822 555.845 2.92523 556.344 2.92523C556.844 2.92523 556.844 2.88785 557.344 2.88785C557.844 2.88785 557.844 2.58878 558.344 2.58878C558.844 2.58878 558.844 2.3271 559.344 2.3271C559.844 2.3271 559.844 2.03738 560.343 2.03738C560.843 2.03738 560.843 2.6729 561.343 2.6729C561.843 2.6729 561.843 2.33645 562.343 2.33645C562.843 2.33645 562.843 2.53271 563.343 2.53271C563.843 2.53271 563.843 2.71963 564.342 2.71963C564.842 2.71963 564.842 2.76636 565.342 2.76636C565.842 2.76636 565.842 2.90654 566.342 2.90654C566.842 2.90654 566.842 2.65421 567.342 2.65421C567.841 2.65421 567.841 2.61682 568.341 2.61682C568.841 2.61682 568.841 2.83178 569.341 2.83178C569.841 2.83178 569.841 2.35514 570.341 2.35514C570.841 2.35514 570.841 2.27103 571.341 2.27103C571.84 2.27103 571.84 2.43925 572.34 2.43925C572.84 2.43925 572.84 2.17757 573.34 2.17757C573.84 2.17757 573.84 2.64486 574.34 2.64486C574.84 2.64486 574.84 2.85047 575.34 2.85047C575.839 2.85047 575.839 2.83178 576.339 2.83178C576.839 2.83178 576.839 2.94393 577.339 2.94393C577.839 2.94393 577.839 2.50467 578.339 2.50467C578.839 2.50467 578.839 2.06542 579.339 2.06542C579.838 2.06542 579.838 2.75701 580.338 2.75701C580.838 2.75701 580.838 2.4486 581.338 2.4486C581.838 2.4486 581.838 2.58878 582.338 2.58878C582.838 2.58878 582.838 2.64486 583.338 2.64486C583.837 2.64486 583.837 2.21495 584.337 2.21495C584.837 2.21495 584.837 2.50467 585.337 2.50467C585.837 2.50467 585.837 2.42056 586.337 2.42056C586.837 2.42056 586.837 2.84112 587.337 2.84112C587.836 2.84112 587.836 2.74766 588.336 2.74766C588.836 2.74766 588.836 2.56075 589.336 2.56075C589.836 2.56075 589.836 2.62617 590.336 2.62617C590.836 2.62617 590.836 2.03738 591.336 2.03738C591.835 2.03738 591.835 2.84112 592.335 2.84112C592.835 2.84112 592.835 2.52336 593.335 2.52336C593.835 2.52336 593.835 2.13084 594.335 2.13084C594.835 2.13084 594.835 2.66355 595.334 2.66355C595.834 2.66355 595.834 2.29907 596.334 2.29907C596.834 2.29907 596.834 2.58878 597.334 2.58878C597.834 2.58878 597.834 2.92523 598.334 2.92523C598.834 2.92523 598.834 2.64486 599.333 2.64486C599.833 2.64486 599.833 2.37383 600.333 2.37383C600.833 2.37383 600.833 2.6729 601.333 2.6729C601.833 2.6729 601.833 2.69159 602.333 2.69159C602.833 2.69159 602.833 2.48598 603.332 2.48598C603.832 2.48598 603.832 2.58878 604.332 2.58878C604.832 2.58878 604.832 2.81308 605.332 2.81308C605.832 2.81308 605.832 2.06542 606.332 2.06542C606.832 2.06542 606.832 2.7757 607.331 2.7757C607.831 2.7757 607.831 2.82243 608.331 2.82243C608.831 2.82243 608.831 2.39252 609.331 2.39252C609.831 2.39252 609.831 2.8785 610.331 2.8785C610.831 2.8785 610.831 2.80374 611.33 2.80374C611.83 2.80374 611.83 2.70093 612.33 2.70093C612.83 2.70093 612.83 2.31776 613.33 2.31776C613.83 2.31776 613.83 2.71963 614.33 2.71963C614.83 2.71963 614.83 2.36449 615.329 2.36449C615.829 2.36449 615.829 2.54206 616.329 2.54206C616.829 2.54206 616.829 2.50467 617.329 2.50467C617.829 2.50467 617.829 2.45794 618.329 2.45794C618.829 2.45794 618.829 2.64486 619.328 2.64486C619.828 2.64486 619.828 2.62617 620.328 2.62617C620.828 2.62617 620.828 2.52336 621.328 2.52336C621.828 2.52336 621.828 2.06542 622.328 2.06542C622.827 2.06542 622.827 2.43925 623.327 2.43925C623.827 2.43925 623.827 2.82243 624.327 2.82243C624.827 2.82243 624.827 2.34579 625.327 2.34579C625.827 2.34579 625.827 2.35514 626.327 2.35514C626.826 2.35514 626.826 2.54206 627.326 2.54206C627.826 2.54206 627.826 2.47664 628.326 2.47664C628.826 2.47664 628.826 2.71963 629.326 2.71963C629.826 2.71963 629.826 2.80374 630.326 2.80374C630.825 2.80374 630.825 2.31776 631.325 2.31776C631.825 2.31776 631.825 2.42056 632.325 2.42056C632.825 2.42056 632.825 2.99065 633.325 2.99065C633.825 2.99065 633.825 2.06542 634.325 2.06542C634.824 2.06542 634.824 2.3271 635.324 2.3271C635.824 2.3271 635.824 2.47664 636.324 2.47664C636.824 2.47664 636.824 2.47664 637.324 2.47664C637.824 2.47664 637.824 2.4486 638.324 2.4486C638.823 2.4486 638.823 2.62617 639.323 2.62617C639.823 2.62617 639.823 2.09346 640.323 2.09346C640.823 2.09346 640.823 2.29907 641.323 2.29907C641.823 2.29907 641.823 2.43925 642.323 2.43925C642.822 2.43925 642.822 2.96262 643.322 2.96262C643.822 2.96262 643.822 2.81308 644.322 2.81308C644.822 2.81308 644.822 2.49533 645.322 2.49533C645.822 2.49533 645.822 2.15888 646.322 2.15888C646.821 2.15888 646.821 2.2243 647.321 2.2243C647.821 2.2243 647.821 2.64486 648.321 2.64486C648.821 2.64486 648.821 2.57009 649.321 2.57009C649.821 2.57009 649.821 2.78505 650.32 2.78505C650.82 2.78505 650.82 2.20561 651.32 2.20561C651.82 2.20561 651.82 2.50467 652.32 2.50467C652.82 2.50467 652.82 2.15888 653.32 2.15888C653.82 2.15888 653.82 2.45794 654.319 2.45794C654.819 2.45794 654.819 2.90654 655.319 2.90654C655.819 2.90654 655.819 2.6729 656.319 2.6729C656.819 2.6729 656.819 2.58878 657.319 2.58878C657.819 2.58878 657.819 2.58878 658.318 2.58878C658.818 2.58878 658.818 2.79439 659.318 2.79439C659.818 2.79439 659.818 2.78505 660.318 2.78505C660.818 2.78505 660.818 2.99065 661.318 2.99065C661.818 2.99065 661.818 2.47664 662.317 2.47664C662.817 2.47664 662.817 2.36449 663.317 2.36449C663.817 2.36449 663.817 2.93458 664.317 2.93458C664.817 2.93458 664.817 2.2243 665.317 2.2243C665.817 2.2243 665.817 3 666.316 3C666.816 3 666.816 2.2243 667.316 2.2243C667.816 2.2243 667.816 2.83178 668.316 2.83178C668.816 2.83178 668.816 2.11215 669.316 2.11215C669.816 2.11215 669.816 2.74766 670.315 2.74766C670.815 2.74766 670.815 2.27103 671.315 2.27103C671.815 2.27103 671.815 2.85047 672.315 2.85047C672.815 2.85047 672.815 2.57944 673.315 2.57944C673.815 2.57944 673.815 2.62617 674.314 2.62617C674.814 2.62617 674.814 2.53271 675.314 2.53271C675.814 2.53271 675.814 2.98131 676.314 2.98131C676.814 2.98131 676.814 2.98131 677.314 2.98131C677.813 2.98131 677.814 2.45794 678.313 2.45794C678.813 2.45794 678.813 2.96262 679.313 2.96262C679.813 2.96262 679.813 2.81308 680.313 2.81308C680.813 2.81308 680.813 2.95327 681.313 2.95327C681.812 2.95327 681.812 2.6729 682.312 2.6729C682.812 2.6729 682.812 2.75701 683.312 2.75701C683.812 2.75701 683.812 2.13084 684.312 2.13084C684.812 2.13084 684.812 2.18692 685.312 2.18692C685.811 2.18692 685.811 2.13084 686.311 2.13084C686.811 2.13084 686.811 2.97196 687.311 2.97196C687.811 2.97196 687.811 2.43925 688.311 2.43925C688.811 2.43925 688.811 2.69159 689.311 2.69159C689.81 2.69159 689.81 2.45794 690.31 2.45794C690.81 2.45794 690.81 2.82243 691.31 2.82243C691.81 2.82243 691.81 2.54206 692.31 2.54206C692.81 2.54206 692.81 2.6729 693.31 2.6729C693.809 2.6729 693.809 2.33645 694.309 2.33645C694.809 2.33645 694.809 2.6729 695.309 2.6729C695.809 2.6729 695.809 2.47664 696.309 2.47664C696.809 2.47664 696.809 2.4486 697.309 2.4486C697.808 2.4486 697.808 2.40187 698.308 2.40187C698.808 2.40187 698.808 2.28037 699.308 2.28037C699.808 2.28037 699.808 2.33645 700.308 2.33645C700.808 2.33645 700.808 2.1215 701.308 2.1215C701.807 2.1215 701.807 2.43925 702.307 2.43925C702.807 2.43925 702.807 2.69159 703.307 2.69159C703.807 2.69159 703.807 2.8785 704.307 2.8785C704.807 2.8785 704.807 2.13084 705.307 2.13084C705.806 2.13084 705.806 2.1215 706.306 2.1215C706.806 2.1215 706.806 2.11215 707.306 2.11215C707.806 2.11215 707.806 2.84112 708.306 2.84112C708.806 2.84112 708.806 2.26168 709.305 2.26168C709.805 2.26168 709.805 2.84112 710.305 2.84112C710.805 2.84112 710.805 2.65421 711.305 2.65421C711.805 2.65421 711.805 2.63551 712.305 2.63551C712.805 2.63551 712.805 2.85981 713.304 2.85981C713.804 2.85981 713.804 2.28037 714.304 2.28037C714.804 2.28037 714.804 2.30841 715.304 2.30841C715.804 2.30841 715.804 2.80374 716.304 2.80374C716.804 2.80374 716.804 2.66355 717.303 2.66355C717.803 2.66355 717.803 2.58878 718.303 2.58878C718.803 2.58878 718.803 2.20561 719.303 2.20561C719.803 2.20561 719.803 2.29907 720.303 2.29907C720.803 2.29907 720.802 2.84112 721.302 2.84112C721.802 2.84112 721.802 2.47664 722.302 2.47664C722.802 2.47664 722.802 2.54206 723.302 2.54206C723.802 2.54206 723.802 2.66355 724.302 2.66355C724.802 2.66355 724.801 2.27103 725.301 2.27103C725.801 2.27103 725.801 2.28972 726.301 2.28972C726.801 2.28972 726.801 2.28037 727.301 2.28037C727.801 2.28037 727.801 2.59813 728.301 2.59813C728.801 2.59813 728.8 2.79439 729.3 2.79439C729.8 2.79439 729.8 2.7757 730.3 2.7757C730.8 2.7757 730.8 2.21495 731.3 2.21495C731.8 2.21495 731.8 2.17757 732.3 2.17757C732.8 2.17757 732.799 2.28972 733.299 2.28972C733.799 2.28972 733.799 2.35514 734.299 2.35514C734.799 2.35514 734.799 2.1215 735.299 2.1215C735.799 2.1215 735.799 2.97196 736.299 2.97196C736.798 2.97196 736.798 2.48598 737.298 2.48598C737.798 2.48598 737.798 2.36449 738.298 2.36449C738.798 2.36449 738.798 2.85047 739.298 2.85047C739.798 2.85047 739.798 2.73832 740.298 2.73832C740.797 2.73832 740.797 2.90654 741.297 2.90654C741.797 2.90654 741.797 2.98131 742.297 2.98131C742.797 2.98131 742.797 2.26168 743.297 2.26168C743.797 2.26168 743.797 2.85981 744.297 2.85981C744.796 2.85981 744.796 2.28972 745.296 2.28972C745.796 2.28972 745.796 2.71963 746.296 2.71963C746.796 2.71963 746.796 2.30841 747.296 2.30841C747.796 2.30841 747.796 2.84112 748.296 2.84112C748.795 2.84112 748.795 2.15888 749.295 2.15888C749.795 2.15888 749.795 2.1215 750.295 2.1215C750.795 2.1215 750.795 2.19626 751.295 2.19626C751.795 2.19626 751.795 2.71963 752.294 2.71963C752.794 2.71963 752.794 2.19626 753.294 2.19626C753.794 2.19626 753.794 2.20561 754.294 2.20561C754.794 2.20561 754.794 2.4486 755.294 2.4486C755.794 2.4486 755.794 2.86916 756.293 2.86916C756.793 2.86916 756.793 2.62617 757.293 2.62617C757.793 2.62617 757.793 2.68224 758.293 2.68224C758.793 2.68224 758.793 2.18692 759.293 2.18692C759.793 2.18692 759.793 2.26168 760.292 2.26168C760.792 2.26168 760.792 2.24299 761.292 2.24299C761.792 2.24299 761.792 2.86916 762.292 2.86916C762.792 2.86916 762.792 2.31776 763.292 2.31776C763.792 2.31776 763.792 2.39252 764.291 2.39252C764.791 2.39252 764.791 2.71963 765.291 2.71963C765.791 2.71963 765.791 2.83178 766.291 2.83178C766.791 2.83178 766.791 2.63551 767.291 2.63551C767.791 2.63551 767.791 2.26168 768.29 2.26168C768.79 2.26168 768.79 2.24299 769.29 2.24299C769.79 2.24299 769.79 2.8972 770.29 2.8972C770.79 2.8972 770.79 2.69159 771.29 2.69159C771.79 2.69159 771.79 2.70093 772.289 2.70093C772.789 2.70093 772.789 2.14019 773.289 2.14019C773.789 2.14019 773.789 2.92523 774.289 2.92523C774.789 2.92523 774.789 2.7757 775.289 2.7757C775.789 2.7757 775.789 2.49533 776.288 2.49533C776.788 2.49533 776.788 2.8972 777.288 2.8972C777.788 2.8972 777.788 2.16822 778.288 2.16822C778.788 2.16822 778.788 2.75701 779.288 2.75701C779.787 2.75701 779.788 2.96262 780.287 2.96262C780.787 2.96262 780.787 2.26168 781.287 2.26168C781.787 2.26168 781.787 2.14953 782.287 2.14953C782.787 2.14953 782.787 2.65421 783.287 2.65421C783.786 2.65421 783.787 2.40187 784.286 2.40187C784.786 2.40187 784.786 2.49533 785.286 2.49533C785.786 2.49533 785.786 2.07477 786.286 2.07477C786.786 2.07477 786.786 2.62617 787.286 2.62617C787.785 2.62617 787.786 2.60748 788.285 2.60748C788.785 2.60748 788.785 2.06542 789.285 2.06542C789.785 2.06542 789.785 2.39252 790.285 2.39252C790.785 2.39252 790.785 2.51402 791.285 2.51402C791.784 2.51402 791.784 2.47664 792.284 2.47664C792.784 2.47664 792.784 2.39252 793.284 2.39252C793.784 2.39252 793.784 2.28037 794.284 2.28037C794.784 2.28037 794.784 2.4486 795.284 2.4486C795.783 2.4486 795.783 2.6729 796.283 2.6729C796.783 2.6729 796.783 2.85981 797.283 2.85981C797.783 2.85981 797.783 2.74766 798.283 2.74766C798.783 2.74766 798.783 2.63551 799.283 2.63551C799.782 2.63551 799.782 2.86916 800.282 2.86916C800.782 2.86916 800.782 2.64486 801.282 2.64486C801.782 2.64486 801.782 2.28972 802.282 2.28972C802.782 2.28972 802.782 2.97196 803.282 2.97196C803.781 2.97196 803.781 2.54206 804.281 2.54206C804.781 2.54206 804.781 2.2243 805.281 2.2243C805.781 2.2243 805.781 2.29907 806.281 2.29907C806.781 2.29907 806.781 2.57009 807.281 2.57009C807.78 2.57009 807.78 2.72897 808.28 2.72897C808.78 2.72897 808.78 2.56075 809.28 2.56075C809.78 2.56075 809.78 2.66355 810.28 2.66355C810.78 2.66355 810.78 2.50467 811.28 2.50467C811.779 2.50467 811.779 2.85981 812.279 2.85981C812.779 2.85981 812.779 2.21495 813.279 2.21495C813.779 2.21495 813.779 2.7757 814.279 2.7757C814.779 2.7757 814.779 2.57009 815.279 2.57009C815.778 2.57009 815.778 2.2243 816.278 2.2243C816.778 2.2243 816.778 2.60748 817.278 2.60748C817.778 2.60748 817.778 2.52336 818.278 2.52336C818.778 2.52336 818.778 2.80374 819.278 2.80374C819.777 2.80374 819.777 2.93458 820.277 2.93458C820.777 2.93458 820.777 2.07477 821.277 2.07477C821.777 2.07477 821.777 2.64486 822.277 2.64486C822.777 2.64486 822.777 2.57009 823.276 2.57009C823.776 2.57009 823.776 2.61682 824.276 2.61682C824.776 2.61682 824.776 2.88785 825.276 2.88785C825.776 2.88785 825.776 2.49533 826.276 2.49533C826.776 2.49533 826.776 2.14019 827.275 2.14019C827.775 2.14019 827.775 2.52336 828.275 2.52336C828.775 2.52336 828.775 2.53271 829.275 2.53271C829.775 2.53271 829.775 2.37383 830.275 2.37383C830.775 2.37383 830.775 2.48598 831.274 2.48598C831.774 2.48598 831.774 2.4486 832.274 2.4486C832.774 2.4486 832.774 2.8972 833.274 2.8972C833.774 2.8972 833.774 2.79439 834.274 2.79439C834.774 2.79439 834.773 2.71963 835.273 2.71963C835.773 2.71963 835.773 2.68224 836.273 2.68224C836.773 2.68224 836.773 2.90654 837.273 2.90654C837.773 2.90654 837.564 2.96262 838.064 2.96262C838.564 2.96262 838.564 2.79439 839.064 2.79439C839.564 2.79439 839.564 2.96262 840.064 2.96262C840.564 2.96262 840.564 2.63551 841.064 2.63551C841.563 2.63551 841.563 2.30841 842.063 2.30841C842.563 2.30841 842.563 2.6729 843.063 2.6729C843.563 2.6729 843.563 2.74766 844.063 2.74766C844.563 2.74766 844.563 2.38318 845.063 2.38318C845.562 2.38318 845.562 2.56075 846.062 2.56075C846.562 2.56075 846.562 2.74766 847.062 2.74766C847.562 2.74766 847.562 2.23364 848.062 2.23364C848.562 2.23364 848.562 2.11215 849.062 2.11215C849.561 2.11215 849.561 2.05607 850.061 2.05607C850.561 2.05607 850.561 2.29907 851.061 2.29907C851.561 2.29907 851.561 2.74766 852.061 2.74766C852.561 2.74766 852.561 2.54206 853.061 2.54206C853.56 2.54206 853.56 2.24299 854.06 2.24299C854.56 2.24299 854.56 2.63551 855.06 2.63551C855.56 2.63551 855.56 2.21495 856.06 2.21495C856.56 2.21495 856.56 2.21495 857.059 2.21495C857.559 2.21495 857.559 2.11215 858.059 2.11215C858.559 2.11215 858.559 2.35514 859.059 2.35514C859.559 2.35514 859.559 2.05607 860.059 2.05607C860.559 2.05607 860.559 2.76636 861.058 2.76636C861.558 2.76636 861.558 2.40187 862.058 2.40187C862.558 2.40187 862.558 2.62617 863.058 2.62617C863.558 2.62617 863.558 2.58878 864.058 2.58878C864.558 2.58878 864.558 2.08411 865.057 2.08411C865.557 2.08411 865.557 2.94393 866.057 2.94393C866.557 2.94393 866.557 2.50467 867.057 2.50467C867.557 2.50467 867.557 2.41122 868.057 2.41122C868.557 2.41122 868.557 2.40187 869.056 2.40187C869.556 2.40187 869.556 2.59813 870.056 2.59813C870.556 2.59813 870.556 2.8972 871.056 2.8972C871.556 2.8972 871.556 2.8972 872.056 2.8972C872.556 2.8972 872.556 2.54206 873.055 2.54206C873.555 2.54206 873.555 2.1028 874.055 2.1028C874.555 2.1028 874.555 2.23364 875.055 2.23364C875.555 2.23364 875.555 2.6729 876.055 2.6729C876.555 2.6729 876.555 2.62617 877.054 2.62617C877.554 2.62617 877.554 2.48598 878.054 2.48598C878.554 2.48598 878.554 2.35514 879.054 2.35514C879.554 2.35514 879.554 2.78505 880.054 2.78505C880.554 2.78505 880.554 2.41122 881.053 2.41122C881.553 2.41122 881.553 2.02804 882.053 2.02804C882.553 2.02804 882.553 2.00935 883.053 2.00935C883.553 2.00935 883.553 2.66355 884.053 2.66355C884.552 2.66355 884.553 2.86916 885.052 2.86916C885.552 2.86916 885.552 2.42991 886.052 2.42991C886.552 2.42991 886.552 2.25234 887.052 2.25234C887.552 2.25234 887.552 2.03738 888.052 2.03738C888.551 2.03738 888.552 2.56075 889.051 2.56075C889.551 2.56075 889.551 2.59813 890.051 2.59813C890.551 2.59813 890.551 2.82243 891.051 2.82243C891.551 2.82243 891.551 2.1215 892.051 2.1215C892.55 2.1215 892.55 2.15888 893.05 2.15888C893.55 2.15888 893.55 2.13084 894.05 2.13084C894.55 2.13084 894.55 2.69159 895.05 2.69159C895.55 2.69159 895.55 2.30841 896.05 2.30841C896.549 2.30841 896.549 2.8785 897.049 2.8785C897.549 2.8785 897.549 2.14019 898.049 2.14019C898.549 2.14019 898.549 2.49533 899.049 2.49533C899.549 2.49533 899.549 2.57944 900.049 2.57944C900.548 2.57944 900.548 2.05607 901.048 2.05607C901.548 2.05607 901.548 2.1028 902.048 2.1028C902.548 2.1028 902.548 2.40187 903.048 2.40187C903.548 2.40187 903.548 2.40187 904.048 2.40187C904.547 2.40187 904.547 2.46729 905.047 2.46729C905.547 2.46729 905.547 2.04673 906.047 2.04673C906.547 2.04673 906.714 2.58878 907.213 2.58878C907.713 2.58878 907.713 2.42056 908.213 2.42056C908.713 2.42056 908.713 2.17757 909.213 2.17757C909.713 2.17757 909.713 2.06542 910.213 2.06542C910.713 2.06542 910.712 2.45794 911.212 2.45794C911.712 2.45794 911.712 2.54206 912.212 2.54206C912.712 2.54206 912.712 2.84112 913.212 2.84112C913.712 2.84112 913.712 2.78505 914.212 2.78505C914.712 2.78505 914.711 2.37383 915.211 2.37383C915.711 2.37383 915.711 2.91589 916.211 2.91589C916.711 2.91589 916.711 2.64486 917.211 2.64486C917.711 2.64486 917.711 2.8972 918.211 2.8972C918.711 2.8972 918.71 2.84112 919.21 2.84112C919.71 2.84112 919.71 2.06542 920.21 2.06542C920.71 2.06542 920.71 2.18692 921.21 2.18692C921.71 2.18692 921.71 2.56075 922.21 2.56075C922.709 2.56075 922.709 2.88785 923.209 2.88785C923.709 2.88785 923.709 2.39252 924.209 2.39252C924.709 2.39252 924.709 2.47664 925.209 2.47664C925.709 2.47664 925.709 2.27103 926.209 2.27103C926.708 2.27103 926.708 2.43925 927.208 2.43925C927.708 2.43925 927.708 2.76636 928.208 2.76636C928.708 2.76636 928.708 2.29907 929.208 2.29907C929.708 2.29907 929.708 2.6729 930.208 2.6729C930.707 2.6729 930.707 2.57009 931.207 2.57009C931.707 2.57009 931.707 2.95327 932.207 2.95327C932.707 2.95327 932.707 2.6729 933.207 2.6729C933.707 2.6729 933.707 2.8972 934.207 2.8972C934.706 2.8972 934.706 2.84112 935.206 2.84112C935.706 2.84112 935.706 2.5514 936.206 2.5514C936.706 2.5514 936.706 2.50467 937.206 2.50467C937.706 2.50467 937.706 2.14953 938.205 2.14953C938.705 2.14953 938.705 2.81308 939.205 2.81308C939.705 2.81308 939.705 2.37383 940.205 2.37383C940.705 2.37383 940.705 2.37383 941.205 2.37383C941.705 2.37383 941.705 2.11215 942.204 2.11215C942.704 2.11215 942.704 2.27103 943.204 2.27103C943.704 2.27103 943.704 2.14953 944.204 2.14953C944.704 2.14953 944.704 2.53271 945.204 2.53271C945.704 2.53271 945.704 2.70093 946.203 2.70093C946.703 2.70093 946.703 2.48598 947.203 2.48598C947.703 2.48598 947.703 2.56075 948.203 2.56075C948.703 2.56075 948.703 2.73832 949.203 2.73832C949.703 2.73832 949.703 2.83178 950.202 2.83178C950.702 2.83178 950.702 2.1215 951.202 2.1215C951.702 2.1215 951.702 2.42056 952.202 2.42056C952.702 2.42056 952.702 2.85981 953.202 2.85981C953.702 2.85981 953.702 2.33645 954.201 2.33645C954.701 2.33645 954.701 2.31776 955.201 2.31776C955.701 2.31776 955.701 2.13084 956.201 2.13084C956.701 2.13084 956.701 2.82243 957.201 2.82243C957.701 2.82243 957.701 2.86916 958.2 2.86916C958.7 2.86916 958.7 2.48598 959.2 2.48598C959.7 2.48598 959.7 2.31776 960.2 2.31776C960.7 2.31776 960.7 2.58878 961.2 2.58878C961.7 2.58878 961.7 2.85047 962.199 2.85047C962.699 2.85047 962.699 2.97196 963.199 2.97196C963.699 2.97196 963.699 2.82243 964.199 2.82243C964.699 2.82243 964.699 2.39252 965.199 2.39252C965.698 2.39252 965.699 2.90654 966.198 2.90654C966.698 2.90654 966.698 2.85047 967.198 2.85047C967.698 2.85047 967.698 2.57944 968.198 2.57944C968.698 2.57944 968.698 2.43925 969.198 2.43925C969.697 2.43925 969.697 2.25234 970.197 2.25234C970.697 2.25234 970.697 2.56075 971.197 2.56075C971.697 2.56075 971.697 2.6729 972.197 2.6729C972.697 2.6729 972.697 2.1215 973.197 2.1215C973.696 2.1215 973.696 2.06542 974.196 2.06542C974.696 2.06542 974.696 2.1028 975.196 2.1028C975.696 2.1028 975.696 2.54206 976.196 2.54206C976.696 2.54206 976.696 2.40187 977.196 2.40187C977.695 2.40187 977.695 2.07477 978.195 2.07477C978.695 2.07477 978.695 2.98131 979.195 2.98131C979.695 2.98131 979.695 2.26168 980.195 2.26168C980.695 2.26168 980.695 2.47664 981.195 2.47664C981.694 2.47664 981.694 2.82243 982.194 2.82243C982.694 2.82243 982.694 2.63551 983.194 2.63551C983.694 2.63551 983.694 2.54206 984.194 2.54206C984.694 2.54206 984.694 2.52336 985.194 2.52336C985.693 2.52336 985.693 2.3271 986.193 2.3271C986.693 2.3271 986.693 2.49533 987.193 2.49533C987.693 2.49533 987.693 2.3271 988.193 2.3271C988.693 2.3271 988.693 2.7757 989.193 2.7757C989.692 2.7757 989.692 2.6729 990.192 2.6729C990.692 2.6729 990.692 2.71963 991.192 2.71963C991.692 2.71963 991.692 2.47664 992.192 2.47664C992.692 2.47664 992.692 2.28037 993.192 2.28037C993.691 2.28037 993.691 2.94393 994.191 2.94393C994.691 2.94393 994.691 2.74766 995.191 2.74766C995.691 2.74766 995.691 2.28972 996.191 2.28972C996.691 2.28972 996.691 2.59813 997.19 2.59813C997.69 2.59813 997.69 2.51402 998.19 2.51402C998.69 2.51402 998.69 2.26168 999.19 2.26168C999.69 2.26168 999.69 2.09346 1000.19 2.09346C1000.69 2.09346 1000.69 2.07477 1001.19 2.07477C1001.69 2.07477 1001.69 2.30841 1002.19 2.30841C1002.69 2.30841 1002.69 2.08411 1003.19 2.08411C1003.69 2.08411 1003.69 2.31776 1004.19 2.31776C1004.69 2.31776 1004.69 2.5514 1005.19 2.5514C1005.69 2.5514 1005.69 2.75701 1006.19 2.75701C1006.69 2.75701 1006.69 2.34579 1007.19 2.34579C1007.69 2.34579 1007.69 2.98131 1008.19 2.98131C1008.69 2.98131 1008.69 2.28972 1009.19 2.28972C1009.69 2.28972 1009.69 2.11215 1010.19 2.11215C1010.69 2.11215 1010.69 2.25234 1011.19 2.25234C1011.69 2.25234 1011.69 2.45794 1012.19 2.45794C1012.69 2.45794 1012.69 2.47664 1013.19 2.47664C1013.69 2.47664 1013.69 2.06542 1014.19 2.06542C1014.69 2.06542 1014.69 2.35514 1015.19 2.35514C1015.69 2.35514 1015.69 2.1215 1016.19 2.1215C1016.69 2.1215 1016.69 2.75701 1017.19 2.75701C1017.69 2.75701 1017.69 2.91589 1018.19 2.91589C1018.69 2.91589 1018.69 2.52336 1019.18 2.52336C1019.68 2.52336 1019.68 2.75701 1020.18 2.75701C1020.68 2.75701 1020.68 2.18692 1021.18 2.18692C1021.68 2.18692 1021.68 2.71963 1022.18 2.71963C1022.68 2.71963 1022.68 2.18692 1023.18 2.18692C1023.68 2.18692 1023.68 2.14953 1024.18 2.14953C1024.68 2.14953 1024.68 2.54206 1025.18 2.54206C1025.68 2.54206 1025.68 2.28972 1026.18 2.28972C1026.68 2.28972 1026.68 2.43925 1027.18 2.43925C1027.68 2.43925 1027.68 2.1215 1028.18 2.1215C1028.68 2.1215 1028.68 2.19626 1029.18 2.19626C1029.68 2.19626 1029.68 2.50467 1030.18 2.50467C1030.68 2.50467 1030.68 2.78505 1031.18 2.78505C1031.68 2.78505 1031.68 2.68224 1032.18 2.68224C1032.68 2.68224 1032.68 2.83178 1033.18 2.83178C1033.68 2.83178 1033.68 2.14953 1034.18 2.14953C1034.68 2.14953 1034.68 2.11215 1035.18 2.11215C1035.68 2.11215 1035.68 2.74766 1036.18 2.74766C1036.68 2.74766 1036.68 2.20561 1037.18 2.20561C1037.68 2.20561 1037.68 2.57009 1038.18 2.57009C1038.68 2.57009 1038.68 2.48598 1039.18 2.48598C1039.68 2.48598 1039.68 2.86916 1040.18 2.86916C1040.68 2.86916 1040.68 2.75701 1041.18 2.75701C1041.68 2.75701 1041.68 2.03738 1042.18 2.03738C1042.68 2.03738 1042.68 2.92523 1043.18 2.92523C1043.68 2.92523 1043.68 2.3271 1044.18 2.3271C1044.68 2.3271 1044.68 2.69159 1045.19 2.69159C1045.69 2.69159 1045.69 2.93458 1046.21 2.93458C1046.71 2.93458 1046.71 2.09346 1047.21 2.09346C1047.71 2.09346 1047.71 2.85047 1048.21 2.85047C1048.71 2.85047 1048.71 2.11215 1049.21 2.11215C1049.7 2.11215 1049.7 2.53271 1050.2 2.53271C1050.7 2.53271 1050.7 2.03738 1051.2 2.03738C1051.7 2.03738 1051.7 2.8972 1052.2 2.8972C1052.7 2.8972 1052.7 2.15888 1053.2 2.15888C1053.7 2.15888 1053.7 2.57944 1054.2 2.57944C1054.7 2.57944 1054.7 2.76636 1055.2 2.76636C1055.7 2.76636 1055.7 2.26168 1056.2 2.26168C1056.7 2.26168 1056.7 2.48598 1057.2 2.48598C1057.7 2.48598 1057.7 2.93458 1058.2 2.93458C1058.7 2.93458 1058.7 2.17757 1059.2 2.17757C1059.7 2.17757 1059.7 2.78505 1060.2 2.78505C1060.7 2.78505 1060.7 2.24299 1061.2 2.24299C1061.7 2.24299 1061.7 2.2243 1062.2 2.2243C1062.7 2.2243 1062.7 2.49533 1063.2 2.49533C1063.7 2.49533 1063.7 2.4486 1064.2 2.4486C1064.7 2.4486 1064.7 2.31776 1065.2 2.31776C1065.7 2.31776 1065.7 2.59813 1066.2 2.59813C1066.7 2.59813 1066.7 2.14953 1067.2 2.14953C1067.7 2.14953 1067.7 2.4486 1068.2 2.4486C1068.7 2.4486 1068.7 2.88785 1069.2 2.88785C1069.7 2.88785 1069.7 2.29907 1070.2 2.29907C1070.7 2.29907 1070.7 2.19626 1071.2 2.19626C1071.7 2.19626 1071.7 2.85981 1072.2 2.85981C1072.7 2.85981 1072.7 2.45794 1073.2 2.45794C1073.7 2.45794 1073.7 2.09346 1074.2 2.09346C1074.7 2.09346 1074.7 2.65421 1075.2 2.65421C1075.7 2.65421 1075.7 2.72897 1076.2 2.72897C1076.7 2.72897 1076.7 2.51402 1077.2 2.51402C1077.7 2.51402 1077.7 2.68224 1078.2 2.68224C1078.7 2.68224 1078.7 2.79439 1079.2 2.79439C1079.7 2.79439 1079.7 2 1080.2 2C1080.7 2 1080.7 2.79439 1081.2 2.79439C1081.7 2.79439 1081.7 2.42991 1082.2 2.42991C1082.7 2.42991 1082.7 2.20561 1083.2 2.20561C1083.7 2.20561 1083.7 2.00935 1084.21 2.00935C1084.71 2.00935 1084.71 2.27103 1085.22 2.27103C1085.72 2.27103 1085.72 2.31776 1086.24 2.31776C1086.75 2.31776 1086.74 2.76636 1087.25 2.76636C1087.75 2.76636 1087.75 2.15888 1088.26 2.15888C1088.76 2.15888 1088.76 2.09346 1089.28 2.09346C1089.78 2.09346 1089.78 2.28972 1090.28 2.28972C1090.78 2.28972 1090.78 2.70093 1091.28 2.70093C1091.78 2.70093 1091.78 2.68224 1092.28 2.68224C1092.78 2.68224 1092.78 2.31776 1093.28 2.31776C1093.78 2.31776 1093.78 2.4486 1094.28 2.4486C1094.78 2.4486 1094.78 2.42991 1095.28 2.42991C1095.78 2.42991 1095.78 2.54206 1096.28 2.54206C1096.78 2.54206 1096.78 2.69159 1097.28 2.69159C1097.78 2.69159 1097.78 2.57009 1098.28 2.57009C1098.78 2.57009 1098.78 2.25234 1099.28 2.25234C1099.78 2.25234 1099.78 2.43925 1100.28 2.43925C1100.78 2.43925 1100.78 2.02804 1101.28 2.02804C1101.77 2.02804 1101.77 2.24299 1102.27 2.24299C1102.77 2.24299 1102.77 2.14953 1103.27 2.14953C1103.77 2.14953 1103.77 2.83178 1104.27 2.83178C1104.77 2.83178 1104.77 2.6729 1105.27 2.6729C1105.77 2.6729 1105.77 2.48598 1106.27 2.48598C1106.77 2.48598 1106.77 2.47664 1107.27 2.47664C1107.77 2.47664 1107.77 2.41122 1108.27 2.41122C1108.77 2.41122 1108.77 2.62617 1109.27 2.62617C1109.77 2.62617 1109.77 2.79439 1110.29 2.79439C1110.79 2.79439 1110.79 2.74766 1111.3 2.74766C1111.8 2.74766 1111.8 2.71963 1112.31 2.71963C1112.81 2.71963 1112.81 2.24299 1113.33 2.24299C1113.83 2.24299 1113.83 2.95327 1114.34 2.95327C1114.84 2.95327 1114.84 2.92523 1115.35 2.92523C1115.85 2.92523 1115.85 2.8785 1116.37 2.8785C1116.87 2.8785 1116.87 2.48598 1117.38 2.48598C1117.88 2.48598 1117.88 2.45794 1118.38 2.45794C1118.88 2.45794 1118.88 2.4486 1119.38 2.4486C1119.88 2.4486 1119.88 2.28972 1120.38 2.28972C1120.88 2.28972 1120.88 2.08411 1121.38 2.08411C1121.88 2.08411 1121.88 2.39252 1122.38 2.39252C1122.88 2.39252 1122.88 2.46729 1123.38 2.46729C1123.88 2.46729 1123.88 2.71963 1124.38 2.71963C1124.88 2.71963 1124.88 2.27103 1125.38 2.27103C1125.88 2.27103 1125.88 2.47664 1126.38 2.47664C1126.88 2.47664 1126.88 2.70093 1127.39 2.70093C1127.89 2.70093 1127.89 2.38318 1128.41 2.38318C1128.91 2.38318 1128.91 2.15888 1129.42 2.15888C1129.92 2.15888 1129.92 2.7757 1130.43 2.7757C1130.93 2.7757 1130.93 2.04673 1131.45 2.04673C1131.95 2.04673 1131.95 2.47664 1132.46 2.47664C1132.96 2.47664 1132.96 2.91589 1133.48 2.91589C1133.98 2.91589 1133.98 2.13084 1134.49 2.13084C1134.99 2.13084 1134.99 2.13084 1135.5 2.13084C1136 2.13084 1136 2.85047 1136.52 2.85047C1137.02 2.85047 1137.02 2.62617 1137.52 2.62617C1138.02 2.62617 1138.02 2.37383 1138.52 2.37383C1139.02 2.37383 1139.02 2.93458 1139.52 2.93458C1140.02 2.93458 1140.02 2.5514 1140.52 2.5514C1141.01 2.5514 1141.01 2.04673 1141.51 2.04673C1142.01 2.04673 1142.01 2.25234 1142.51 2.25234C1143.01 2.25234 1143.01 2.04673 1143.53 2.04673C1144.03 2.04673 1144.03 2.58878 1144.54 2.58878C1145.04 2.58878 1145.04 2.25234 1145.56 2.25234C1146.06 2.25234 1146.06 2.38318 1146.57 2.38318C1147.07 2.38318 1147.07 2.61682 1147.58 2.61682C1148.08 2.61682 1148.08 2.26168 1148.58 2.26168C1149.08 2.26168 1149.08 2.91589 1149.58 2.91589C1150.08 2.91589 1150.08 2.90654 1150.58 2.90654C1151.08 2.90654 1151.08 2.05607 1151.58 2.05607C1152.08 2.05607 1152.08 2.31776 1152.58 2.31776C1153.08 2.31776 1153.08 2.05607 1153.58 2.05607C1154.08 2.05607 1154.08 2.38318 1154.58 2.38318C1155.08 2.38318 1155.08 2.3271 1155.58 2.3271C1156.08 2.3271 1156.08 2.57009 1156.58 2.57009C1157.08 2.57009 1157.08 2.24299 1157.58 2.24299C1158.08 2.24299 1158.08 2.93458 1158.58 2.93458C1159.08 2.93458 1159.08 2.56075 1159.59 2.56075C1160.09 2.56075 1160.09 2.52336 1160.61 2.52336C1161.11 2.52336 1161.11 2.53271 1161.62 2.53271C1162.12 2.53271 1162.12 2.96262 1162.63 2.96262C1163.13 2.96262 1163.13 2.64486 1163.65 2.64486C1164.15 2.64486 1164.15 2.05607 1164.66 2.05607C1165.16 2.05607 1165.16 2.62617 1165.68 2.62617C1166.18 2.62617 1166.18 2.13084 1166.69 2.13084C1167.19 2.13084 1167.19 2.91589 1167.7 2.91589C1168.2 2.91589 1168.2 2.21495 1168.72 2.21495C1169.22 2.21495 1169.22 2.30841 1169.73 2.30841C1170.23 2.30841 1170.23 2.76636 1170.74 2.76636C1171.24 2.76636 1171.24 2.35514 1171.76 2.35514C1172.26 2.35514 1172.26 2.24299 1172.77 2.24299C1173.27 2.24299 1173.27 2.97196 1173.78 2.97196C1174.28 2.97196 1174.28 2.40187 1174.8 2.40187C1175.3 2.40187 1175.3 2.81308 1175.81 2.81308C1176.33 2.81308 1176.31 2.28972 1176.83 2.28972C1177.33 2.28972 1177.33 2.72897 1177.84 2.72897C1178.34 2.72897 1178.34 2.82243 1178.85 2.82243C1179.35 2.82243 1179.35 2.24299 1179.87 2.24299C1180.37 2.24299 1180.37 2.36449 1180.88 2.36449C1181.38 2.36449 1181.38 2.24299 1181.89 2.24299C1182.39 2.24299 1182.39 2.20561 1182.91 2.20561C1183.41 2.20561 1183.41 2.91589 1183.91 2.91589C1184.41 2.91589 1184.41 2.14019 1184.91 2.14019C1185.41 2.14019 1185.41 2.42991 1185.92 2.42991C1186.42 2.42991 1186.42 2.33645 1186.93 2.33645C1187.45 2.33645 1187.45 2.74766 1187.95 2.74766C1188.45 2.74766 1188.45 2.57944 1188.96 2.57944C1189.46 2.57944 1189.46 2.71963 1189.97 2.71963C1190.47 2.71963 1190.47 2.13084 1190.99 2.13084C1191.5 2.13084 1191.5 2.29907 1192 2.29907C1192.52 2.29907 1192.52 2.78505 1193.02 2.78505C1193.53 2.78505 1193.53 2.64486 1194.03 2.64486C1194.54 2.64486 1194.54 2.84112 1195.04 2.84112C1195.56 2.84112 1195.56 2.91589 1196.06 2.91589C1196.57 2.91589 1196.57 2.29907 1197.07 2.29907C1197.57 2.29907 1197.57 2.31776 1198.08 2.31776C1198.6 2.31776 1198.6 2.88785 1199.1 2.88785C1199.61 2.88785 1199.61 2.64486 1200.11 2.64486C1200.62 2.64486 1200.62 2.35514 1201.14 2.35514C1201.65 2.35514 1201.65 2.56075 1202.17 2.56075" stroke="#184E77" stroke-width="2" stroke-miterlimit="10" stroke-linecap="round" stroke-linejoin="round"/>
</g>
<defs>
<clipPath id="clip0">
<rect width="1200" height="5" fill="white"/>
</clipPath>
</defs>
</svg>
