<svg width="334" height="13" viewBox="0 0 334 13" fill="none" xmlns="http://www.w3.org/2000/svg">
<g clip-path="url(#clip0)">
<path d="M0.400024 12.691L9.59002 0.309045" stroke="#609CD4" stroke-miterlimit="10"/>
<path d="M9.59003 12.691L18.77 0.309045" stroke="#609CD4" stroke-miterlimit="10"/>
<path d="M18.77 12.691L27.96 0.309045" stroke="#609CD4" stroke-miterlimit="10"/>
<path d="M27.96 12.691L37.15 0.309045" stroke="#609CD4" stroke-miterlimit="10"/>
<path d="M37.15 12.691L46.34 0.309045" stroke="#609CD4" stroke-miterlimit="10"/>
<path d="M46.34 12.691L55.53 0.309045" stroke="#609CD4" stroke-miterlimit="10"/>
<path d="M55.53 12.691L64.72 0.309045" stroke="#609CD4" stroke-miterlimit="10"/>
<path d="M64.72 12.691L73.9 0.309045" stroke="#609CD4" stroke-miterlimit="10"/>
<path d="M73.9 12.691L83.09 0.309045" stroke="#609CD4" stroke-miterlimit="10"/>
<path d="M83.09 12.6909L92.28 0.309015" stroke="#609CD4" stroke-miterlimit="10"/>
<path d="M92.28 12.6909L101.47 0.309015" stroke="#609CD4" stroke-miterlimit="10"/>
<path d="M101.47 12.6909L110.66 0.309015" stroke="#609CD4" stroke-miterlimit="10"/>
<path d="M110.66 12.6909L119.85 0.309015" stroke="#609CD4" stroke-miterlimit="10"/>
<path d="M119.85 12.6909L129.04 0.309015" stroke="#609CD4" stroke-miterlimit="10"/>
<path d="M129.04 12.6909L138.22 0.309015" stroke="#609CD4" stroke-miterlimit="10"/>
<path d="M138.22 12.6909L147.41 0.309015" stroke="#609CD4" stroke-miterlimit="10"/>
<path d="M147.41 12.6909L156.6 0.309015" stroke="#609CD4" stroke-miterlimit="10"/>
<path d="M156.6 12.6909L165.79 0.309015" stroke="#609CD4" stroke-miterlimit="10"/>
<path d="M165.79 12.6909L174.98 0.309015" stroke="#609CD4" stroke-miterlimit="10"/>
<path d="M174.98 12.6909L184.17 0.309015" stroke="#609CD4" stroke-miterlimit="10"/>
<path d="M184.17 12.6909L193.35 0.309015" stroke="#609CD4" stroke-miterlimit="10"/>
<path d="M193.35 12.6909L202.54 0.309015" stroke="#609CD4" stroke-miterlimit="10"/>
<path d="M202.54 12.6909L211.73 0.309015" stroke="#609CD4" stroke-miterlimit="10"/>
<path d="M211.73 12.6909L220.92 0.309015" stroke="#609CD4" stroke-miterlimit="10"/>
<path d="M220.92 12.6909L230.11 0.309015" stroke="#609CD4" stroke-miterlimit="10"/>
<path d="M230.11 12.6909L239.3 0.309015" stroke="#609CD4" stroke-miterlimit="10"/>
<path d="M239.3 12.6909L248.48 0.309015" stroke="#609CD4" stroke-miterlimit="10"/>
<path d="M248.48 12.6909L257.67 0.309015" stroke="#609CD4" stroke-miterlimit="10"/>
<path d="M257.67 12.6909L266.86 0.309015" stroke="#609CD4" stroke-miterlimit="10"/>
<path d="M266.86 12.6909L276.05 0.309015" stroke="#609CD4" stroke-miterlimit="10"/>
<path d="M276.05 12.6909L285.24 0.309015" stroke="#609CD4" stroke-miterlimit="10"/>
<path d="M285.24 12.6909L294.43 0.309015" stroke="#609CD4" stroke-miterlimit="10"/>
<path d="M294.43 12.6909L303.62 0.309015" stroke="#609CD4" stroke-miterlimit="10"/>
<path d="M303.62 12.6909L312.8 0.309015" stroke="#609CD4" stroke-miterlimit="10"/>
<path d="M312.8 12.6909L321.99 0.309015" stroke="#609CD4" stroke-miterlimit="10"/>
<path d="M321.99 12.6909L331.18 0.309015" stroke="#609CD4" stroke-miterlimit="10"/>
<path d="M331.18 12.6909L340.37 0.309015" stroke="#609CD4" stroke-miterlimit="10"/>
</g>
<defs>
<clipPath id="clip0">
<rect width="13" height="334" fill="white" transform="translate(0 13) rotate(-90)"/>
</clipPath>
</defs>
</svg>
