<svg width="13" height="510" viewBox="0 0 13 510" fill="none" xmlns="http://www.w3.org/2000/svg">
<g clip-path="url(#clip0)">
<path d="M0.309036 0.399994L12.691 9.58999" stroke="#609CD4" stroke-miterlimit="10"/>
<path d="M0.309036 9.59L12.691 18.77" stroke="#609CD4" stroke-miterlimit="10"/>
<path d="M0.309036 18.77L12.691 27.96" stroke="#609CD4" stroke-miterlimit="10"/>
<path d="M0.309036 27.96L12.691 37.15" stroke="#609CD4" stroke-miterlimit="10"/>
<path d="M0.309036 37.15L12.691 46.34" stroke="#609CD4" stroke-miterlimit="10"/>
<path d="M0.309036 46.34L12.691 55.53" stroke="#609CD4" stroke-miterlimit="10"/>
<path d="M0.309036 55.53L12.691 64.72" stroke="#609CD4" stroke-miterlimit="10"/>
<path d="M0.309036 64.72L12.691 73.9" stroke="#609CD4" stroke-miterlimit="10"/>
<path d="M0.309036 73.9L12.691 83.09" stroke="#609CD4" stroke-miterlimit="10"/>
<path d="M0.309036 83.09L12.691 92.28" stroke="#609CD4" stroke-miterlimit="10"/>
<path d="M0.309036 92.28L12.691 101.47" stroke="#609CD4" stroke-miterlimit="10"/>
<path d="M0.309036 101.47L12.691 110.66" stroke="#609CD4" stroke-miterlimit="10"/>
<path d="M0.309036 110.66L12.691 119.85" stroke="#609CD4" stroke-miterlimit="10"/>
<path d="M0.309036 119.85L12.691 129.04" stroke="#609CD4" stroke-miterlimit="10"/>
<path d="M0.309036 129.04L12.691 138.22" stroke="#609CD4" stroke-miterlimit="10"/>
<path d="M0.309036 138.22L12.691 147.41" stroke="#609CD4" stroke-miterlimit="10"/>
<path d="M0.309036 147.41L12.691 156.6" stroke="#609CD4" stroke-miterlimit="10"/>
<path d="M0.309036 156.6L12.691 165.79" stroke="#609CD4" stroke-miterlimit="10"/>
<path d="M0.309036 165.79L12.691 174.98" stroke="#609CD4" stroke-miterlimit="10"/>
<path d="M0.309036 174.98L12.691 184.17" stroke="#609CD4" stroke-miterlimit="10"/>
<path d="M0.309036 184.17L12.691 193.35" stroke="#609CD4" stroke-miterlimit="10"/>
<path d="M0.309036 193.35L12.691 202.54" stroke="#609CD4" stroke-miterlimit="10"/>
<path d="M0.309036 202.54L12.691 211.73" stroke="#609CD4" stroke-miterlimit="10"/>
<path d="M0.309036 211.73L12.691 220.92" stroke="#609CD4" stroke-miterlimit="10"/>
<path d="M0.309036 220.92L12.691 230.11" stroke="#609CD4" stroke-miterlimit="10"/>
<path d="M0.309036 230.11L12.691 239.3" stroke="#609CD4" stroke-miterlimit="10"/>
<path d="M0.309036 239.3L12.691 248.48" stroke="#609CD4" stroke-miterlimit="10"/>
<path d="M0.309036 248.48L12.691 257.67" stroke="#609CD4" stroke-miterlimit="10"/>
<path d="M0.309036 257.67L12.691 266.86" stroke="#609CD4" stroke-miterlimit="10"/>
<path d="M0.309036 266.86L12.691 276.05" stroke="#609CD4" stroke-miterlimit="10"/>
<path d="M0.309036 276.05L12.691 285.24" stroke="#609CD4" stroke-miterlimit="10"/>
<path d="M0.309036 285.24L12.691 294.43" stroke="#609CD4" stroke-miterlimit="10"/>
<path d="M0.309036 294.43L12.691 303.62" stroke="#609CD4" stroke-miterlimit="10"/>
<path d="M0.309036 303.62L12.691 312.8" stroke="#609CD4" stroke-miterlimit="10"/>
<path d="M0.309036 312.8L12.691 321.99" stroke="#609CD4" stroke-miterlimit="10"/>
<path d="M0.309036 321.99L12.691 331.18" stroke="#609CD4" stroke-miterlimit="10"/>
<path d="M0.309036 331.18L12.691 340.37" stroke="#609CD4" stroke-miterlimit="10"/>
<path d="M0.309036 340.37L12.691 349.56" stroke="#609CD4" stroke-miterlimit="10"/>
<path d="M0.309036 349.56L12.691 358.75" stroke="#609CD4" stroke-miterlimit="10"/>
<path d="M0.309036 358.75L12.691 367.93" stroke="#609CD4" stroke-miterlimit="10"/>
<path d="M0.309036 367.93L12.691 377.12" stroke="#609CD4" stroke-miterlimit="10"/>
<path d="M0.309036 377.12L12.691 386.31" stroke="#609CD4" stroke-miterlimit="10"/>
<path d="M0.309036 386.31L12.691 395.5" stroke="#609CD4" stroke-miterlimit="10"/>
<path d="M0.309036 395.5L12.691 404.69" stroke="#609CD4" stroke-miterlimit="10"/>
<path d="M0.309036 404.69L12.691 413.88" stroke="#609CD4" stroke-miterlimit="10"/>
<path d="M0.309036 413.88L12.691 423.07" stroke="#609CD4" stroke-miterlimit="10"/>
<path d="M0.309036 423.07L12.691 432.25" stroke="#609CD4" stroke-miterlimit="10"/>
<path d="M0.309036 432.25L12.691 441.44" stroke="#609CD4" stroke-miterlimit="10"/>
<path d="M0.309036 441.44L12.691 450.63" stroke="#609CD4" stroke-miterlimit="10"/>
<path d="M0.309036 450.63L12.691 459.82" stroke="#609CD4" stroke-miterlimit="10"/>
<path d="M0.309036 459.82L12.691 469.01" stroke="#609CD4" stroke-miterlimit="10"/>
<path d="M0.309036 469.01L12.691 478.2" stroke="#609CD4" stroke-miterlimit="10"/>
<path d="M0.309036 478.2L12.691 487.38" stroke="#609CD4" stroke-miterlimit="10"/>
<path d="M0.309036 487.38L12.691 496.57" stroke="#609CD4" stroke-miterlimit="10"/>
<path d="M0.309036 496.57L12.691 505.76" stroke="#609CD4" stroke-miterlimit="10"/>
<path d="M0.309036 505.76L12.691 514.95" stroke="#609CD4" stroke-miterlimit="10"/>
</g>
<defs>
<clipPath id="clip0">
<rect width="13" height="510" fill="white"/>
</clipPath>
</defs>
</svg>
